<svg width="351" height="191" viewBox="0 0 351 191" fill="none" xmlns="http://www.w3.org/2000/svg">
<g clip-path="url(#clip0_94_5382)">
<path d="M110.952 97.8115C113.659 97.6024 116.071 97.4151 118.591 97.2215V102.884H121.497V97.2278C124.033 97.4213 126.445 97.6055 129.13 97.8115C127.309 94.9427 125.628 92.2986 123.831 89.4673C125.062 89.6265 126.094 89.7576 127.359 89.9199C125.808 87.0542 124.35 84.3602 122.753 81.4102C123.89 81.5382 124.832 81.6444 126.053 81.7817C124.68 79.0721 123.421 76.5904 122.016 73.8214C122.93 73.9775 123.576 74.0836 124.409 74.2272C123.322 72.1513 122.321 70.244 121.196 68.0994C122.01 68.3554 122.601 68.5427 123.378 68.7862C122.249 65.4834 121.199 62.4054 120.046 59.0247C118.896 62.3867 117.839 65.4834 116.708 68.783C117.473 68.5458 118.097 68.3491 118.899 68.0994C117.79 70.2096 116.786 72.1201 115.682 74.221C116.531 74.0774 117.183 73.965 118.075 73.8152C116.705 76.5123 115.443 78.9972 114.045 81.7505C115.194 81.635 116.139 81.5413 117.342 81.4196C115.76 84.329 114.293 87.0324 112.717 89.9324C113.957 89.7607 114.992 89.6171 116.273 89.4423C114.489 92.2487 112.814 94.8865 110.958 97.8084L110.952 97.8115Z" fill="#E9F3FF"/>
<path d="M58.6678 125.335C54.3634 125.001 50.5282 124.705 46.519 124.396V133.402H41.8976V124.408C37.8666 124.717 34.0315 125.011 29.7612 125.339C32.6578 120.778 35.3275 116.573 38.1867 112.071C36.2288 112.324 34.5909 112.533 32.5801 112.793C35.0447 108.238 37.3632 103.955 39.9023 99.2601C38.0966 99.463 36.5955 99.6316 34.6562 99.8501C36.841 95.539 38.8425 91.5964 41.0771 87.1948C39.6226 87.4414 38.597 87.6131 37.273 87.8379C39.001 84.5383 40.5923 81.5071 42.3793 78.0951C41.0864 78.5009 40.1447 78.7975 38.9109 79.1846C40.7041 73.9308 42.3762 69.036 44.2099 63.6636C46.0373 69.0079 47.7218 73.9308 49.515 79.1814C48.2999 78.8037 47.3053 78.4947 46.0311 78.0982C47.7933 81.454 49.3907 84.4914 51.1467 87.8316C49.7979 87.6006 48.7598 87.4258 47.3426 87.1854C49.5213 91.4746 51.529 95.4235 53.7542 99.8033C51.9268 99.6191 50.4257 99.4692 48.5143 99.2788C51.0286 103.905 53.3626 108.204 55.8676 112.814C53.8972 112.543 52.25 112.315 50.2143 112.034C53.0518 116.498 55.7122 120.687 58.6678 125.339V125.335Z" fill="#E9F3FF"/>
<path d="M25.4911 131.111C23.9154 130.989 22.5106 130.88 21.0437 130.767V134.064H19.353V130.77C17.8767 130.883 16.472 130.992 14.9087 131.111C15.9685 129.441 16.9475 127.902 17.9948 126.253C17.28 126.347 16.6771 126.422 15.9436 126.519C16.8449 124.852 17.6934 123.281 18.6226 121.565C17.9606 121.639 17.4106 121.702 16.7019 121.78C17.5038 120.203 18.2341 118.758 19.0515 117.147C18.5201 117.238 18.144 117.3 17.6592 117.381C18.2932 116.173 18.8744 115.062 19.5301 113.813C19.0577 113.963 18.7128 114.069 18.259 114.213C18.9148 112.29 19.527 110.498 20.1983 108.531C20.8665 110.489 21.485 112.29 22.1408 114.213C21.6963 114.076 21.3327 113.96 20.8665 113.816C21.513 115.043 22.0973 116.158 22.7406 117.381C22.2464 117.297 21.8673 117.232 21.3483 117.144C22.147 118.714 22.8805 120.16 23.6947 121.764C23.0265 121.699 22.4764 121.643 21.7772 121.571C22.6971 123.266 23.5518 124.839 24.4686 126.525C23.7476 126.425 23.1446 126.341 22.3987 126.238C23.4368 127.873 24.4126 129.406 25.4942 131.107L25.4911 131.111Z" fill="#E9F3FF"/>
<path d="M34.0814 121.109C32.5057 120.987 31.1009 120.878 29.634 120.765V124.062H27.9433V120.768C26.4671 120.881 25.0623 120.99 23.499 121.109C24.5588 119.439 25.5378 117.9 26.5852 116.251C25.8704 116.345 25.2674 116.42 24.534 116.517C25.4352 114.85 26.2837 113.279 27.213 111.563C26.551 111.637 26.0009 111.7 25.2923 111.778C26.0941 110.202 26.8245 108.756 27.6419 107.145C27.1104 107.236 26.7343 107.298 26.2495 107.38C26.8835 106.171 27.4647 105.06 28.1205 103.811C27.6481 103.961 27.3031 104.067 26.8493 104.211C27.5051 102.288 28.1174 100.496 28.7887 98.5295C29.4569 100.487 30.0753 102.288 30.7311 104.211C30.2867 104.074 29.9231 103.958 29.4569 103.815C30.1033 105.041 30.6876 106.156 31.3309 107.38C30.8368 107.295 30.4576 107.23 29.9386 107.142C30.7373 108.712 31.4708 110.158 32.2851 111.762C31.6169 111.697 31.0668 111.641 30.3675 111.569C31.2874 113.264 32.1421 114.837 33.0589 116.523C32.3379 116.423 31.735 116.339 30.9891 116.236C32.0271 117.871 33.003 119.404 34.0845 121.106L34.0814 121.109Z" fill="#E9F3FF"/>
<path d="M101.656 85.7493C103.232 85.6275 104.637 85.5183 106.104 85.4059V88.7024H107.795V85.409C109.271 85.5214 110.676 85.6307 112.239 85.7493C111.179 84.0792 110.2 82.5402 109.153 80.8919C109.868 80.9856 110.47 81.0605 111.204 81.1573C110.303 79.4903 109.454 77.9201 108.525 76.2032C109.187 76.2781 109.737 76.3405 110.446 76.4186C109.644 74.8421 108.913 73.3968 108.096 71.786C108.627 71.8765 109.004 71.939 109.488 72.0201C108.854 70.812 108.273 69.7007 107.617 68.452C108.09 68.6019 108.435 68.708 108.889 68.8516C108.233 66.9287 107.62 65.1368 106.949 63.1702C106.281 65.1275 105.663 66.9287 105.007 68.8516C105.451 68.7143 105.815 68.5988 106.281 68.4552C105.635 69.682 105.05 70.7964 104.407 72.0201C104.901 71.9358 105.28 71.8703 105.799 71.7829C105.001 73.3531 104.267 74.7984 103.453 76.403C104.121 76.3374 104.671 76.2812 105.37 76.2094C104.45 77.9045 103.596 79.4778 102.679 81.1635C103.4 81.0636 104.003 80.9793 104.749 80.8763C103.711 82.5121 102.735 84.0448 101.653 85.7462L101.656 85.7493Z" fill="#E9F3FF"/>
<path d="M325.556 142.814C327.706 142.648 329.621 142.498 331.622 142.345V146.841H333.928V142.352C335.942 142.505 337.857 142.651 339.989 142.817C338.54 140.538 337.21 138.44 335.781 136.193C336.757 136.318 337.577 136.424 338.581 136.552C337.35 134.276 336.194 132.138 334.926 129.796C335.827 129.896 336.576 129.981 337.546 130.09C336.455 127.939 335.454 125.969 334.342 123.771C335.069 123.893 335.579 123.981 336.241 124.093C335.377 122.445 334.584 120.931 333.692 119.229C334.339 119.432 334.808 119.579 335.423 119.773C334.528 117.15 333.692 114.706 332.778 112.021C331.865 114.691 331.026 117.147 330.13 119.769C330.737 119.582 331.234 119.426 331.871 119.229C330.991 120.906 330.193 122.423 329.316 124.09C329.991 123.974 330.51 123.887 331.215 123.768C330.127 125.91 329.127 127.883 328.014 130.068C328.925 129.977 329.677 129.902 330.631 129.806C329.375 132.116 328.21 134.26 326.96 136.564C327.946 136.427 328.766 136.314 329.782 136.174C328.365 138.403 327.038 140.494 325.562 142.817L325.556 142.814Z" fill="#E9F3FF"/>
<path d="M317.873 129.706C319.126 129.609 320.238 129.522 321.404 129.431V132.047H322.746V129.434C323.918 129.525 325.034 129.609 326.274 129.706C325.431 128.379 324.654 127.158 323.825 125.85C324.393 125.922 324.869 125.985 325.453 126.06C324.735 124.736 324.064 123.49 323.324 122.126C323.85 122.186 324.285 122.236 324.85 122.298C324.216 121.046 323.632 119.897 322.986 118.621C323.408 118.692 323.707 118.742 324.092 118.808C323.588 117.85 323.129 116.966 322.606 115.977C322.982 116.095 323.256 116.18 323.613 116.295C323.091 114.769 322.606 113.345 322.072 111.784C321.54 113.339 321.052 114.769 320.53 116.295C320.885 116.186 321.174 116.095 321.543 115.98C321.031 116.954 320.568 117.837 320.058 118.808C320.449 118.742 320.751 118.689 321.164 118.621C320.53 119.866 319.949 121.015 319.3 122.289C319.831 122.236 320.266 122.192 320.822 122.136C320.092 123.481 319.415 124.73 318.684 126.069C319.256 125.991 319.735 125.922 320.328 125.841C319.505 127.14 318.731 128.357 317.873 129.709V129.706Z" fill="#E9F3FF"/>
<path d="M340.346 155.073C340.346 155.073 301.379 73.7716 212.151 76.3158C165.67 77.6425 112.381 117.553 82.5177 115.047C52.6539 112.543 10.7469 111.809 14.3832 154.835L340.349 155.073H340.346Z" fill="#ACDE78"/>
<path d="M189.01 79.6871C216.643 81.045 226.305 74.5519 206.346 76.6715C206.346 76.6715 202.517 76.9993 198.141 77.7704C196.196 78.1138 189.01 79.6871 189.01 79.6871Z" fill="#A8D672"/>
<path d="M194.067 72.6355C195.466 72.6355 196.6 71.4964 196.6 70.0913C196.6 68.6862 195.466 67.5471 194.067 67.5471C192.668 67.5471 191.534 68.6862 191.534 70.0913C191.534 71.4964 192.668 72.6355 194.067 72.6355Z" fill="#14527F"/>
<path d="M182.344 38.2345C182.344 49.1915 194.067 61.8156 194.067 61.8156C194.067 61.8156 205.79 48.9012 205.79 38.2345C205.79 31.732 200.54 26.4595 194.067 26.4595C187.593 26.4595 182.344 31.732 182.344 38.2345ZM186.922 38.1689C186.922 34.2075 190.12 30.9922 194.067 30.9922C198.014 30.9922 201.212 34.2044 201.212 38.1689C201.212 42.1334 198.014 45.3456 194.067 45.3456C190.12 45.3456 186.922 42.1334 186.922 38.1689Z" fill="#1A65AA"/>
<path d="M195.042 27.8799C188.569 27.8799 183.319 33.1524 183.319 39.6549C183.319 45.3988 186.539 51.5984 189.607 56.1998C186.294 51.511 182.347 44.5965 182.347 38.2376C182.347 31.8788 187.596 26.4626 194.07 26.4626C198.383 26.4626 202.147 28.8039 204.183 32.2877C202.035 29.6031 198.741 27.883 195.042 27.883V27.8799Z" fill="#39A3DB"/>
<path d="M205.759 39.1367C205.759 39.1367 205.759 39.143 205.759 39.1492L205.56 40.8849C203.947 50.9242 194.067 61.8188 194.067 61.8188C194.067 61.8188 192.413 60.0395 190.35 57.2331C199.512 55.3913 205.24 42.48 205.759 39.1367Z" fill="#14527F"/>
<path d="M259.13 79.8496C259.982 79.8496 260.672 79.1564 260.672 78.3013C260.672 77.4462 259.982 76.7529 259.13 76.7529C258.279 76.7529 257.589 77.4462 257.589 78.3013C257.589 79.1564 258.279 79.8496 259.13 79.8496Z" fill="#14527F"/>
<path d="M252.001 58.9312C252.001 65.5929 259.127 73.2691 259.127 73.2691C259.127 73.2691 266.254 65.4149 266.254 58.9312C266.254 54.976 263.062 51.7732 259.127 51.7732C255.193 51.7732 252.001 54.9792 252.001 58.9312ZM254.786 58.8906C254.786 56.4807 256.731 54.5265 259.13 54.5265C261.53 54.5265 263.475 56.4807 263.475 58.8906C263.475 61.3006 261.53 63.2547 259.13 63.2547C256.731 63.2547 254.786 61.3006 254.786 58.8906Z" fill="#1A65AA"/>
<path d="M259.721 52.6347C255.783 52.6347 252.594 55.8407 252.594 59.7927C252.594 63.2859 254.552 67.0538 256.417 69.8508C254.403 67.0007 252.004 62.7958 252.004 58.928C252.004 55.0603 255.196 51.77 259.13 51.77C261.753 51.77 264.041 53.1935 265.281 55.31C263.976 53.6774 261.971 52.6316 259.724 52.6316L259.721 52.6347Z" fill="#39A3DB"/>
<path d="M266.238 59.4805C266.238 59.4805 266.238 59.4836 266.238 59.4867L266.117 60.5418C265.135 66.6479 259.128 73.2721 259.128 73.2721C259.128 73.2721 258.124 72.1888 256.868 70.4844C262.438 69.3637 265.921 61.5127 266.238 59.4805Z" fill="#14527F"/>
<path d="M212.509 76.3063C212.655 76.4186 212.813 76.5373 213 76.6809C213.264 76.865 213.559 77.0867 213.904 77.3052C215.269 78.2198 217.283 79.3499 219.766 80.5299C224.726 82.8961 231.56 85.4497 238.572 87.4101C242.077 88.384 245.627 89.2238 249.011 89.7732C250.705 90.0416 252.352 90.2539 253.94 90.3351C255.525 90.4163 257.045 90.4038 258.475 90.101C259.186 89.9449 259.889 89.7201 260.507 89.2768C260.659 89.1613 260.812 89.0521 260.942 88.8991L261.138 88.6837C261.191 88.5994 261.244 88.5152 261.297 88.434C261.505 88.1031 261.604 87.716 261.638 87.3632C261.694 86.6453 261.499 86.0646 261.315 85.5652C261.203 85.3279 261.107 85.0907 260.992 84.8878C260.874 84.6848 260.765 84.4882 260.656 84.3102C260.51 84.0917 260.377 83.8919 260.246 83.7078C259.562 83.4643 258.872 83.227 258.179 82.996C258.182 82.9991 258.186 83.0054 258.189 83.0116L258.204 83.0304C258.204 83.0304 258.344 83.202 258.605 83.5205C258.742 83.6765 258.891 83.8795 259.065 84.1198C259.248 84.3539 259.426 84.638 259.634 84.9533C259.73 85.1125 259.82 85.2842 259.92 85.4621C260.019 85.6401 260.088 85.8305 260.181 86.0272C260.321 86.4205 260.442 86.8575 260.402 87.2509C260.361 87.6411 260.168 87.9689 259.774 88.2498C259.382 88.5276 258.82 88.7181 258.21 88.8398C256.977 89.0833 255.531 89.0895 254.021 88.9896C252.504 88.8929 250.898 88.665 249.247 88.3809C245.944 87.8003 242.45 86.9262 239.001 85.9148C232.101 83.8857 225.369 81.2635 220.558 78.8879C218.634 77.9389 217.025 77.0367 215.809 76.2688C214.715 76.2719 213.618 76.2875 212.509 76.3156V76.3063Z" fill="white"/>
<path d="M190.132 153.871C190.126 152.791 189.249 151.92 188.174 151.926H188.124C188.124 151.926 187.344 151.929 185.883 151.938C184.423 151.92 182.281 151.885 179.577 151.648C179.239 151.617 178.894 151.586 178.536 151.554C178.182 151.514 177.818 151.47 177.448 151.426C176.703 151.348 175.935 151.22 175.13 151.105C173.526 150.84 171.808 150.496 170.008 150.009C168.212 149.522 166.341 148.892 164.464 148.049C162.599 147.193 160.728 146.126 159.04 144.74C157.365 143.351 155.877 141.631 154.96 139.598C154.509 138.584 154.214 137.498 154.096 136.377C153.99 135.259 154.077 134.107 154.363 132.98C154.944 130.723 156.358 128.585 158.313 126.899C160.268 125.204 162.711 123.918 165.374 123.082C166.704 122.66 168.091 122.342 169.511 122.123C169.862 122.067 170.207 122.03 170.555 121.98C170.723 121.955 170.909 121.936 171.102 121.917L171.671 121.864L172.209 121.814L172.774 121.771C173.153 121.742 173.533 121.714 173.912 121.686C176.951 121.474 180.04 121.33 183.161 121.224C189.401 121.012 195.77 120.956 202.15 120.822C208.534 120.681 214.936 120.503 221.257 119.829C224.415 119.482 227.557 119.014 230.634 118.196C232.169 117.781 233.689 117.278 235.159 116.598C236.62 115.914 238.053 115.043 239.249 113.826C239.843 113.217 240.374 112.521 240.781 111.75C241.188 110.982 241.474 110.148 241.62 109.306C241.773 108.46 241.794 107.632 241.726 106.799C241.711 106.571 241.686 106.412 241.667 106.225C241.633 105.969 241.596 105.772 241.543 105.544C241.437 105.107 241.285 104.686 241.095 104.289C240.713 103.496 240.191 102.816 239.625 102.241C239.056 101.664 238.441 101.18 237.813 100.752C236.555 99.9 235.246 99.2601 233.95 98.6951C231.349 97.5837 228.766 96.7908 226.277 96.0572C223.784 95.333 221.372 94.6962 219.069 94.0687C214.467 92.8232 210.283 91.6151 206.737 90.2072C203.194 88.8149 200.285 87.1979 198.383 85.4092C197.426 84.5257 196.736 83.608 196.267 82.7558C195.798 81.9004 195.555 81.1075 195.425 80.452C195.294 79.7995 195.266 79.2657 195.263 78.9411C195.257 78.785 195.263 78.6195 195.263 78.5259C195.263 78.426 195.263 78.376 195.263 78.376C195.263 78.3479 195.257 78.3198 195.257 78.2917C194.607 78.4197 193.958 78.554 193.308 78.6913C193.308 78.76 193.308 78.8412 193.308 78.9442C193.311 79.3906 193.339 80.0118 193.498 80.8328C193.653 81.6476 193.955 82.6465 194.523 83.7047C195.092 84.7599 195.922 85.8618 197.01 86.8826C199.185 88.946 202.302 90.6692 205.967 92.1458C209.637 93.6286 213.882 94.8804 218.495 96.1665C220.801 96.8096 223.2 97.462 225.649 98.1925C228.095 98.9292 230.612 99.7252 233.046 100.787C234.255 101.32 235.448 101.923 236.514 102.656C237.574 103.387 238.512 104.273 238.994 105.297C239.115 105.553 239.209 105.816 239.271 106.084C239.283 106.153 239.302 106.218 239.311 106.287L239.339 106.477C239.355 106.652 239.38 106.855 239.386 106.992C239.426 107.611 239.398 108.263 239.277 108.865C239.047 110.086 238.432 111.179 237.512 112.087C236.592 112.995 235.401 113.717 234.112 114.294C232.816 114.872 231.42 115.315 229.981 115.68C227.097 116.398 224.061 116.81 220.981 117.1C214.812 117.662 208.462 117.747 202.107 117.79C195.748 117.825 189.367 117.787 183.071 117.903C179.922 117.962 176.793 118.059 173.694 118.227C173.306 118.249 172.92 118.271 172.535 118.293L171.957 118.33L171.637 118.355L171.351 118.38L170.782 118.43C170.596 118.446 170.403 118.462 170.195 118.49C169.791 118.543 169.377 118.586 168.979 118.646C167.398 118.877 165.837 119.223 164.318 119.695C161.281 120.631 158.391 122.098 155.976 124.168C153.564 126.222 151.665 128.963 150.854 132.041C150.45 133.574 150.32 135.169 150.459 136.708C150.609 138.25 151.01 139.73 151.6 141.081C152.803 143.785 154.677 145.926 156.666 147.596C158.671 149.263 160.812 150.49 162.9 151.464C164.998 152.419 167.049 153.122 168.998 153.665C170.947 154.205 172.793 154.586 174.502 154.876C174.642 154.898 174.776 154.917 174.912 154.938L189.793 154.948C190.001 154.636 190.119 154.258 190.119 153.855L190.132 153.871Z" fill="white"/>
<path d="M224.051 33.7985H276.597C276.597 33.7985 278.931 26.4595 272.162 26.4595C267.456 26.4595 261.315 30.3366 258.969 30.115C256.622 29.8964 257.001 26.781 254.732 26.703C252.464 26.6249 245.201 31.8381 244.368 31.5104C243.535 31.1857 242.969 28.5135 239.563 28.0266C235.134 27.3897 234.062 31.604 224.054 33.7954L224.051 33.7985Z" fill="#E9F3FF"/>
<path d="M226.889 9.23393H189.833C197.209 8.65018 197.619 4.14559 200.581 3.70543C202.026 3.49004 204.761 4.92601 206.557 4.92601C208.353 4.92601 211.461 0 213.646 0C216.073 0 217.258 5.84379 218.308 6.24336C219.088 6.53992 221.021 4.28295 223.035 3.9021C225.664 3.40887 228.26 5.07585 226.889 9.23393Z" fill="#E9F3FF"/>
<path d="M145.571 25.0796H125.348C127.548 24.7643 128.02 23.0911 129.118 22.8538C129.901 22.6853 132.291 24.1961 133.674 23.9121C135.162 23.6062 137.978 18.7363 141.232 18.0714C144.486 17.4096 146.814 21.5396 145.568 25.0796H145.571Z" fill="#E9F3FF"/>
<path d="M31.9028 142.789C28.6395 128.869 37.842 118.961 48.0949 117.975C51.3054 117.666 53.5213 114.594 52.7226 111.456C43.8806 76.7309 92.426 54.3391 114.716 92.0646C136.605 77.1804 166.922 86.6797 184.843 122.769C196.174 122.479 179.112 155.063 179.112 155.063H9.34253C2.70405 144.927 12.581 133.586 31.9028 142.792V142.789Z" fill="#7EC172"/>
<path d="M184.839 122.77C166.919 86.6766 136.602 77.1805 114.713 92.0647C112.913 89.0179 110.94 86.3707 108.842 84.0825V155.063H179.108C179.108 155.063 196.171 122.479 184.839 122.77Z" fill="#3E7543"/>
<path d="M141.739 155.073C141.739 155.073 124.72 70.1441 82.8228 72.6509C70.8015 73.3688 58.8392 79.4062 57.4655 96.4318C56.0048 114.519 77.5021 139.926 78.8012 151.539C78.8012 151.539 70.7486 144.234 60.7474 145.798C50.395 147.418 19.142 165.221 9.56963 142.836C7.41586 145.143 6.7228 148.358 7.7453 151.704C8.00636 152.494 8.34201 153.296 8.77401 154.111C8.94805 154.43 9.14074 154.745 9.34587 155.06H96.4696L141.739 155.073Z" fill="#5EA05B"/>
<path d="M45.4938 143.678C42.0005 143.678 38.6533 140.457 37.32 138.674C37.1895 138.503 37.2267 138.256 37.3977 138.128C37.5686 138 37.8141 138.034 37.9416 138.206C38.992 139.611 42.4698 143.195 45.9195 142.876C46.1309 142.861 46.3236 143.017 46.3422 143.232C46.3609 143.447 46.2024 143.638 45.9879 143.657C45.8232 143.672 45.6554 143.678 45.4907 143.678H45.4938Z" fill="white"/>
<path d="M44.1943 135.125C44.0358 135.125 43.8866 135.028 43.8276 134.869C43.753 134.666 43.8555 134.441 44.0575 134.367C46.979 133.283 48.5329 129.216 48.738 127.936C48.7722 127.724 48.9711 127.577 49.1856 127.611C49.3969 127.646 49.543 127.845 49.5088 128.061C49.2757 129.515 47.6099 133.883 44.3279 135.1C44.2844 135.116 44.2378 135.125 44.1943 135.125Z" fill="white"/>
<path d="M43.4952 132.659C43.5574 133.18 43.6288 133.77 43.7252 134.41C43.8091 135.053 43.9303 135.743 44.0484 136.474C44.182 137.204 44.3157 137.975 44.4866 138.765C44.5705 139.161 44.6576 139.564 44.7446 139.97C44.8409 140.376 44.9404 140.785 45.0398 141.2C45.1362 141.615 45.2449 142.03 45.363 142.442C45.478 142.857 45.593 143.273 45.708 143.691C45.9971 144.556 46.2115 145.367 46.4943 146.151C46.6342 146.553 46.774 146.953 46.9108 147.346C47.0631 147.737 47.2153 148.121 47.3645 148.498C47.6473 149.26 47.9892 149.969 48.2876 150.652C48.4336 150.996 48.6015 151.317 48.76 151.632C48.9185 151.948 49.0708 152.25 49.2168 152.541C49.5121 153.121 49.8322 153.63 50.0902 154.095C50.2953 154.473 50.5097 154.795 50.6931 155.072H52.0854C51.9984 154.945 51.8958 154.795 51.7809 154.623C51.5757 154.317 51.3147 153.955 51.0629 153.509C50.8081 153.062 50.4911 152.578 50.1958 152.016C50.0498 151.735 49.8975 151.442 49.739 151.139C49.5805 150.836 49.4126 150.527 49.2666 150.193C48.9682 149.532 48.6232 148.845 48.3373 148.102C48.1881 147.733 48.0327 147.359 47.8773 146.981C47.7375 146.597 47.5945 146.207 47.4515 145.814C47.1532 145.033 46.9139 144.215 46.6466 143.41C46.5285 143.001 46.4073 142.592 46.2892 142.186C46.168 141.78 46.0561 141.375 45.9535 140.966C45.851 140.56 45.7453 140.157 45.6428 139.761C45.5526 139.361 45.4594 138.965 45.3724 138.574C45.1921 137.797 45.0491 137.035 44.9062 136.317C44.7788 135.596 44.6482 134.916 44.5581 134.282C44.4555 133.652 44.3778 133.071 44.3064 132.556C44.2349 132.041 44.1914 131.594 44.1447 131.223C44.0702 130.477 44.0298 130.049 44.0298 130.049C44.008 129.834 43.8215 129.678 43.6102 129.696C43.3957 129.715 43.2372 129.905 43.2559 130.121C43.2559 130.121 43.2932 130.549 43.3553 131.298C43.3957 131.672 43.433 132.134 43.5014 132.656L43.4952 132.659Z" fill="white"/>
<path d="M19.4586 149.937C19.5456 150.109 19.6886 150.321 19.844 150.565C19.9932 150.815 20.189 151.067 20.4003 151.345C20.5029 151.489 20.621 151.626 20.7484 151.767C20.8758 151.907 21.0001 152.057 21.1369 152.204C21.4228 152.485 21.7212 152.788 22.063 153.059C22.2277 153.203 22.4018 153.343 22.5883 153.471C22.7716 153.599 22.9519 153.743 23.1477 153.864C23.3435 153.986 23.5393 154.108 23.7351 154.23C23.9371 154.345 24.1453 154.448 24.3473 154.561C24.5493 154.676 24.7638 154.767 24.9751 154.86C25.1367 154.932 25.2984 155.007 25.46 155.073H29.5748C29.5002 155.063 29.4256 155.054 29.3479 155.041C29.0278 154.982 28.6735 154.929 28.3068 154.848C27.9432 154.76 27.5516 154.689 27.1631 154.567C26.9673 154.511 26.7653 154.458 26.5664 154.392C26.3675 154.323 26.1686 154.255 25.9666 154.183C25.7614 154.117 25.5687 154.027 25.3698 153.946C25.1709 153.861 24.9689 153.783 24.7793 153.68C24.5866 153.584 24.3908 153.493 24.2013 153.39C24.0148 153.281 23.8314 153.175 23.6481 153.068C23.4647 152.962 23.2969 152.834 23.1228 152.719C22.9488 152.606 22.7872 152.482 22.6287 152.354C22.3054 152.113 22.0257 151.839 21.7522 151.589C21.6186 151.461 21.5036 151.323 21.3824 151.195C21.2612 151.067 21.1493 150.946 21.0499 150.815C20.8478 150.562 20.6583 150.331 20.5184 150.112C20.3723 149.897 20.2418 149.719 20.1455 149.541C19.9466 149.201 19.8347 149.007 19.8347 149.007C19.729 148.826 19.4959 148.761 19.3094 148.86C19.1198 148.963 19.0515 149.204 19.154 149.391C19.154 149.391 19.2628 149.588 19.4493 149.934L19.4586 149.937Z" fill="white"/>
<path d="M30.7499 155.073C30.7281 155.035 30.7064 154.998 30.6753 154.97C29.9605 154.32 27.6296 151.976 27.555 149.026C27.5488 148.814 27.3778 148.645 27.1665 148.645C27.1634 148.645 27.1603 148.645 27.1572 148.645C26.9427 148.651 26.7718 148.829 26.778 149.045C26.8464 151.785 28.6365 154.011 29.6652 155.073H30.753H30.7499Z" fill="white"/>
<path d="M282.185 155.101C282.536 152.585 290.076 144.222 293.961 145.043C295.962 145.467 296.146 147.927 296.146 147.927C296.146 147.927 301.544 136.421 313.519 138.325C325.494 140.229 331.943 150.936 331.943 150.936C331.943 150.936 337.826 147.634 340.993 149.357C344.38 151.202 342.826 155.098 342.826 155.098H282.188L282.185 155.101Z" fill="#5EA05B"/>
<path d="M317.873 152.485C317.777 152.485 317.677 152.447 317.603 152.375C317.447 152.226 317.444 151.979 317.593 151.823C318.628 150.746 320.005 150.474 321.223 150.237C322.175 150.053 322.995 149.891 323.443 149.397C323.589 149.238 323.834 149.226 323.993 149.369C324.151 149.516 324.164 149.763 324.021 149.922C323.399 150.609 322.417 150.802 321.373 151.005C320.217 151.23 319.02 151.464 318.156 152.363C318.078 152.444 317.979 152.482 317.876 152.482L317.873 152.485Z" fill="white"/>
<path d="M313.208 155.048C313.208 155.066 313.208 155.082 313.208 155.101H313.985C314.563 151.102 313.342 148.046 312.211 146.182C312.099 145.998 311.859 145.938 311.676 146.051C311.493 146.163 311.434 146.404 311.545 146.588C312.615 148.352 313.771 151.248 313.205 155.044L313.208 155.048Z" fill="white"/>
<path d="M316.213 155.101C317.239 153.974 317.994 152.672 318.725 151.405C319.986 149.213 321.077 147.321 323.259 146.819C323.47 146.769 323.601 146.56 323.551 146.351C323.501 146.141 323.293 146.007 323.085 146.057C320.574 146.635 319.349 148.76 318.05 151.014C317.22 152.453 316.363 153.936 315.123 155.101H316.217H316.213Z" fill="white"/>
<path d="M162.823 155.072C159.121 149.007 160.324 143.332 164.51 140.201C168.7 137.07 184.591 130.511 187.189 126.596C189.787 122.682 195.294 106.034 214.259 104.064C239.339 101.457 251.146 118.677 251.146 118.677L253.614 155.075H162.826L162.823 155.072Z" fill="#7EC172"/>
<path d="M253.232 149.466L259.976 123.665C259.976 123.665 243.286 103.459 219.71 103.796C214.383 105.369 207.216 112.018 208.932 121.283C211.011 132.503 231.013 139.938 232.312 151.551C232.312 151.551 224.26 144.246 214.259 145.81C203.769 147.452 171.811 165.714 162.708 141.933C160.066 145.202 159.731 150 162.826 155.072H249.984L253.235 149.469L253.232 149.466Z" fill="#5EA05B"/>
<path d="M213.861 125.363C213.54 125.363 213.223 125.351 212.91 125.323C212.695 125.304 212.537 125.117 212.555 124.901C212.574 124.686 212.76 124.527 212.975 124.546C218.839 125.042 226.41 120.328 227.349 119.32C227.495 119.161 227.744 119.154 227.899 119.301C228.057 119.448 228.064 119.698 227.918 119.854C226.864 120.987 219.818 125.363 213.861 125.363Z" fill="white"/>
<path d="M220.738 141.986C219.797 141.986 219.026 141.927 218.547 141.837C218.336 141.796 218.196 141.593 218.236 141.381C218.277 141.169 218.476 141.028 218.69 141.069C220.521 141.415 226.789 141.293 230.068 138.968C230.245 138.843 230.488 138.883 230.612 139.061C230.736 139.239 230.693 139.483 230.519 139.608C227.918 141.453 223.563 141.99 220.738 141.99V141.986Z" fill="white"/>
<path d="M198.352 130.233C198.582 131.807 198.896 133.639 199.353 135.574C199.577 136.545 199.841 137.541 200.139 138.543C200.431 139.548 200.776 140.557 201.14 141.556C201.516 142.551 201.917 143.538 202.361 144.493C202.803 145.445 203.272 146.369 203.769 147.237C203.894 147.456 204.018 147.671 204.142 147.883C204.273 148.092 204.4 148.298 204.528 148.504C204.776 148.917 205.047 149.307 205.304 149.688C205.827 150.446 206.358 151.136 206.871 151.757C207.387 152.372 207.878 152.928 208.338 153.39C208.785 153.868 209.214 154.245 209.553 154.57C209.774 154.773 209.969 154.935 210.131 155.072H211.632C211.629 154.907 211.561 154.745 211.424 154.632L211.402 154.614C211.402 154.614 211.303 154.532 211.119 154.379C210.936 154.223 210.656 154.008 210.324 153.708C209.994 153.402 209.581 153.047 209.146 152.594C208.698 152.157 208.223 151.629 207.719 151.042C207.222 150.452 206.7 149.794 206.19 149.066C205.935 148.701 205.671 148.33 205.426 147.933C205.301 147.737 205.174 147.537 205.047 147.337C204.925 147.131 204.804 146.925 204.68 146.716C204.186 145.879 203.723 144.986 203.281 144.065C202.84 143.141 202.436 142.183 202.057 141.212C201.69 140.238 201.339 139.255 201.04 138.272C200.736 137.291 200.465 136.314 200.236 135.365C199.763 133.464 199.431 131.663 199.188 130.112C198.949 128.56 198.803 127.258 198.71 126.344C198.626 125.429 198.576 124.908 198.576 124.908C198.557 124.689 198.368 124.533 198.156 124.552C197.942 124.571 197.783 124.758 197.799 124.973C197.799 124.973 197.842 125.501 197.917 126.422C198.001 127.346 198.135 128.663 198.358 130.236L198.352 130.233Z" fill="white"/>
<path d="M218.523 116.295C218.37 116.142 218.122 116.145 217.973 116.298C217.973 116.298 217.861 116.413 217.649 116.626C217.544 116.744 217.416 116.891 217.264 117.066C217.124 117.241 216.959 117.437 216.785 117.665C216.44 118.121 216.027 118.677 215.595 119.342C215.157 120 214.688 120.759 214.203 121.602C213.715 122.445 213.227 123.375 212.73 124.374C212.248 125.379 211.748 126.44 211.297 127.57C211.058 128.129 210.852 128.713 210.626 129.297C210.424 129.89 210.197 130.483 210.013 131.095C209.612 132.309 209.283 133.567 208.978 134.831C208.702 136.102 208.447 137.379 208.295 138.652C208.114 139.923 208.04 141.187 207.993 142.411C207.984 143.023 207.987 143.625 207.993 144.215C208.027 144.805 208.043 145.383 208.093 145.941C208.155 146.5 208.195 147.046 208.276 147.571C208.363 148.092 208.431 148.601 208.525 149.085C208.63 149.566 208.73 150.025 208.826 150.465C208.938 150.899 209.059 151.308 209.165 151.692C209.264 152.079 209.389 152.431 209.504 152.759C209.619 153.087 209.721 153.387 209.814 153.658C210.026 154.192 210.209 154.604 210.324 154.891C210.355 154.963 210.38 155.025 210.402 155.079H211.626C211.626 155.007 211.611 154.935 211.58 154.866L211.564 154.832C211.564 154.832 211.502 154.688 211.387 154.417C211.272 154.145 211.095 153.752 210.887 153.243C210.793 152.984 210.691 152.697 210.579 152.385C210.467 152.072 210.343 151.735 210.243 151.364C210.138 150.995 210.02 150.605 209.908 150.19C209.811 149.772 209.712 149.328 209.606 148.87C209.51 148.408 209.441 147.917 209.351 147.418C209.267 146.915 209.227 146.388 209.162 145.851C209.106 145.311 209.09 144.752 209.05 144.184C209.037 143.613 209.028 143.032 209.031 142.439C209.065 141.253 209.128 140.026 209.289 138.787C209.426 137.544 209.662 136.295 209.92 135.053C210.206 133.814 210.517 132.581 210.899 131.388C211.076 130.786 211.291 130.205 211.483 129.621C211.701 129.047 211.897 128.472 212.127 127.92C212.559 126.806 213.04 125.757 213.503 124.764C213.982 123.781 214.455 122.86 214.924 122.029C215.39 121.196 215.844 120.447 216.266 119.8C216.683 119.148 217.078 118.605 217.407 118.162C217.578 117.946 217.727 117.753 217.861 117.587C217.994 117.431 218.109 117.297 218.203 117.191C218.411 116.975 218.523 116.86 218.523 116.86C218.672 116.704 218.669 116.457 218.517 116.307L218.523 116.295Z" fill="white"/>
<path d="M230.031 129.094C229.845 128.988 229.606 129.053 229.5 129.243C229.5 129.243 229.438 129.356 229.323 129.565C229.208 129.787 229.031 130.04 228.788 130.389C228.533 130.736 228.207 131.151 227.806 131.61C227.405 132.069 226.939 132.577 226.411 133.117C224.313 135.293 221.292 138.012 218.442 140.937C217.727 141.665 217.031 142.417 216.357 143.163C215.691 143.922 215.042 144.674 214.451 145.439C213.852 146.194 213.317 146.968 212.826 147.711C212.357 148.473 211.928 149.204 211.598 149.925C211.514 150.103 211.434 150.28 211.356 150.452C211.288 150.63 211.219 150.802 211.154 150.974C211.092 151.145 211.02 151.308 210.971 151.47C210.921 151.635 210.874 151.798 210.828 151.954C210.784 152.11 210.731 152.26 210.7 152.409C210.669 152.559 210.641 152.706 210.613 152.847C210.585 152.987 210.56 153.121 210.535 153.249C210.523 153.38 210.511 153.505 210.498 153.624C210.479 153.861 210.448 154.073 210.445 154.258C210.445 154.445 210.452 154.604 210.452 154.732C210.455 154.907 210.458 155.019 210.458 155.079H211.626V155.032C211.626 155.032 211.623 154.916 211.617 154.695C211.614 154.585 211.611 154.451 211.605 154.292C211.605 154.133 211.629 153.948 211.645 153.742C211.654 153.639 211.664 153.53 211.673 153.418C211.695 153.305 211.716 153.187 211.738 153.062C211.76 152.937 211.785 152.809 211.81 152.675C211.835 152.541 211.881 152.406 211.918 152.263C211.959 152.122 211.999 151.976 212.04 151.826C212.083 151.676 212.148 151.526 212.201 151.37C212.26 151.214 212.319 151.055 212.378 150.892C212.45 150.733 212.524 150.568 212.599 150.399C212.894 149.728 213.292 149.029 213.73 148.298C214.193 147.58 214.697 146.831 215.272 146.088C215.834 145.339 216.462 144.593 217.106 143.844C217.761 143.101 218.436 142.351 219.135 141.624C221.92 138.696 224.906 135.943 227.007 133.711C227.536 133.155 228.008 132.627 228.415 132.153C228.822 131.675 229.158 131.235 229.425 130.864C229.686 130.483 229.901 130.155 230 129.952C230.115 129.743 230.174 129.631 230.174 129.631C230.277 129.443 230.208 129.206 230.025 129.103L230.031 129.094Z" fill="white"/>
<path d="M148.915 79.5029C152.701 66.9694 168.408 59.2807 175.556 73.1659C179.761 81.3353 174.714 89.5017 180.883 93.8689C187.052 98.2361 199.677 101.929 197.569 117.247C195.186 134.569 176.479 143.185 161.816 136.542C140.362 126.824 146.162 88.6276 148.915 79.5029Z" fill="#26D49E"/>
<path d="M164.2 120.488C151.019 121.895 147.657 107.392 146.097 100.346C145.829 114.338 148.828 130.658 161.816 136.542C173.838 141.99 188.575 137.176 194.81 125.723C193.312 111.382 177.381 119.08 164.2 120.488Z" fill="#09A376"/>
<path d="M238.764 155.073C225.117 139.867 240.828 104.726 268.905 105.978C285.74 106.727 278.679 120.094 280.718 122.548C282.753 125.001 289.317 122.929 292.733 128.888C296.602 135.637 293.547 150.571 283.773 155.073H238.764Z" fill="#7EC172"/>
<path d="M291.977 127.761C284.248 134.797 279.903 126.909 267.683 130.508C254.067 134.516 241.207 154.732 233.885 138.231C233.328 144.606 234.814 150.674 238.764 155.073H283.773C293.547 150.571 296.602 135.64 292.733 128.888C292.496 128.473 292.242 128.101 291.977 127.761Z" fill="#3E7543"/>
<path d="M258.571 123.762C258.518 123.762 258.462 123.75 258.409 123.728C255.366 122.329 252.709 118.496 251.395 116.333C251.283 116.148 251.342 115.908 251.525 115.796C251.708 115.683 251.948 115.743 252.06 115.927C253.079 117.606 255.774 121.655 258.732 123.016C258.928 123.107 259.015 123.338 258.925 123.534C258.86 123.678 258.72 123.762 258.571 123.762Z" fill="white"/>
<path d="M258.738 137.466C258.698 137.466 258.655 137.46 258.614 137.445C252.635 135.431 246.733 128.994 245.676 127.224C245.564 127.04 245.626 126.8 245.81 126.687C245.993 126.575 246.232 126.637 246.344 126.821C247.332 128.473 253.163 134.785 258.86 136.702C259.065 136.77 259.174 136.992 259.105 137.198C259.049 137.36 258.9 137.466 258.735 137.466H258.738Z" fill="white"/>
<path d="M242.699 138.178C242.484 138.178 242.31 138.003 242.31 137.788C242.31 137.572 242.484 137.398 242.699 137.398C243.904 137.398 249.853 135.359 251.388 132.734C251.497 132.546 251.736 132.484 251.923 132.593C252.109 132.703 252.171 132.943 252.063 133.13C250.366 136.027 244.2 138.181 242.699 138.181V138.178Z" fill="white"/>
<path d="M267.273 131.026C267.09 131.026 266.925 130.895 266.891 130.708C266.85 130.496 266.99 130.29 267.202 130.249C271.481 129.431 275.91 124.171 276.752 123.122C276.889 122.954 277.131 122.929 277.299 123.063C277.467 123.2 277.492 123.447 277.358 123.612C276.131 125.136 271.779 130.168 267.348 131.014C267.323 131.02 267.298 131.02 267.273 131.02V131.026Z" fill="white"/>
<path d="M258.375 138.612C258.496 139.926 258.655 141.219 258.835 142.464C259.028 143.71 259.23 144.911 259.481 146.045C259.543 146.329 259.603 146.607 259.665 146.881C259.733 147.156 259.801 147.424 259.867 147.69C259.991 148.22 260.146 148.726 260.286 149.216C260.575 150.19 260.886 151.071 261.197 151.842C261.337 152.232 261.514 152.581 261.66 152.912C261.735 153.078 261.809 153.234 261.878 153.384C261.958 153.534 262.033 153.677 262.104 153.811C262.25 154.08 262.375 154.33 262.493 154.526C262.599 154.695 262.689 154.838 262.766 154.96H264.112C264.097 154.898 264.075 154.838 264.038 154.782C264.038 154.782 263.947 154.642 263.78 154.38C263.696 154.248 263.59 154.086 263.469 153.896C263.351 153.705 263.245 153.49 263.111 153.246C263.046 153.125 262.975 152.997 262.903 152.862C262.838 152.722 262.766 152.572 262.695 152.419C262.555 152.107 262.384 151.779 262.244 151.408C261.94 150.674 261.635 149.831 261.346 148.889C261.206 148.417 261.051 147.927 260.926 147.412C260.858 147.156 260.793 146.894 260.721 146.628C260.659 146.36 260.6 146.088 260.535 145.811C260.28 144.709 260.069 143.529 259.87 142.305C259.68 141.078 259.512 139.808 259.379 138.509C259.242 137.213 259.139 135.89 259.059 134.566C258.745 129.269 258.882 123.94 259.245 119.982C259.332 118.992 259.441 118.087 259.547 117.288C259.662 116.492 259.773 115.799 259.892 115.24C260.003 114.678 260.118 114.247 260.202 113.96C260.292 113.676 260.339 113.526 260.339 113.526L260.348 113.495C260.414 113.292 260.302 113.073 260.1 113.005C259.895 112.936 259.674 113.048 259.609 113.255C259.609 113.255 259.553 113.42 259.453 113.732C259.36 114.044 259.236 114.497 259.115 115.078C258.987 115.658 258.866 116.364 258.742 117.175C258.624 117.987 258.509 118.902 258.409 119.904C258.005 123.906 257.819 129.269 258.086 134.622C258.154 135.962 258.244 137.298 258.372 138.615L258.375 138.612Z" fill="white"/>
<path d="M271.552 116.816C271.338 116.807 271.155 116.973 271.145 117.188C271.145 117.188 271.145 117.229 271.139 117.303C271.139 117.385 271.124 117.472 271.111 117.591C271.071 117.856 270.987 118.256 270.85 118.764C270.577 119.785 270.095 121.24 269.489 122.979C268.277 126.456 266.564 131.076 265.079 135.787C263.593 140.491 262.344 145.305 262.061 149.079C261.989 150.019 261.974 150.893 262.024 151.673C262.073 152.454 262.182 153.14 262.331 153.702C262.477 154.252 262.661 154.673 262.801 154.96H264.115C264.103 154.91 264.084 154.86 264.059 154.814L264.037 154.779C264.037 154.779 263.969 154.664 263.845 154.445C263.733 154.217 263.574 153.874 263.441 153.396C263.31 152.919 263.201 152.31 263.152 151.592C263.099 150.877 263.105 150.053 263.164 149.154C263.282 147.353 263.63 145.246 264.137 143.014C264.64 140.779 265.296 138.419 266.008 136.071C267.438 131.376 269.1 126.75 270.281 123.247C270.872 121.496 271.344 120.026 271.618 118.961C271.754 118.43 271.845 118 271.885 117.694C271.904 117.528 271.919 117.394 271.919 117.325C271.919 117.25 271.922 117.213 271.922 117.213C271.932 116.998 271.767 116.816 271.552 116.807V116.816Z" fill="white"/>
<path d="M271.643 70.4968C275.148 58.8873 289.7 51.7667 296.319 64.6249C300.217 72.1919 295.539 79.7588 301.255 83.8014C306.97 87.8471 318.662 91.2685 316.71 105.457C314.504 121.502 297.174 129.484 283.589 123.328C263.717 114.325 269.088 78.9441 271.64 70.4906L271.643 70.4968Z" fill="#26D49E"/>
<path d="M285.802 108.46C273.595 109.764 270.477 96.3287 269.032 89.8013C268.787 102.759 271.562 117.881 283.596 123.331C294.731 128.376 308.384 123.918 314.159 113.308C312.77 100.022 298.013 107.155 285.802 108.46Z" fill="#09A376"/>
<path d="M286.448 94.5243C286.284 94.5243 286.131 94.4182 286.079 94.2527C286.013 94.0467 286.125 93.8251 286.33 93.7595C288.916 92.9198 290.902 88 291.2 85.7087C291.228 85.4933 291.427 85.3435 291.636 85.3715C291.85 85.3996 291.999 85.5963 291.971 85.8086C291.645 88.3371 289.5 93.5504 286.57 94.5025C286.529 94.5149 286.489 94.5212 286.448 94.5212V94.5243Z" fill="white"/>
<path d="M288.177 114.007C287.984 114.007 287.816 113.863 287.791 113.666C287.521 111.597 285.563 109.855 283.297 107.841C280.202 105.088 276.348 101.66 275.319 95.9228C275.282 95.7106 275.422 95.5077 275.633 95.4671C275.845 95.4265 276.047 95.5701 276.087 95.7824C277.066 101.252 280.653 104.439 283.813 107.255C286.197 109.374 288.255 111.203 288.562 113.563C288.59 113.779 288.441 113.976 288.227 114.004C288.208 114.004 288.192 114.007 288.177 114.007Z" fill="white"/>
<path d="M299.632 104.383C299.598 104.383 299.564 104.379 299.533 104.37C296.195 103.474 296.764 93.029 296.913 92.0894C296.947 91.8771 297.149 91.7304 297.361 91.7648C297.572 91.7991 297.718 91.9989 297.684 92.2143C297.342 94.3682 297.42 102.993 299.735 103.615C299.943 103.671 300.068 103.886 300.012 104.092C299.965 104.267 299.807 104.383 299.636 104.383H299.632Z" fill="white"/>
<path d="M299.132 114.007C298.933 114.007 298.762 113.854 298.744 113.648C298.725 113.432 298.884 113.242 299.098 113.223C302.138 112.964 304.891 106.97 304.891 104.732C304.891 104.517 305.065 104.342 305.28 104.342C305.494 104.342 305.668 104.517 305.668 104.732C305.668 107.189 302.784 113.691 299.163 114.004C299.151 114.004 299.141 114.004 299.129 114.004L299.132 114.007Z" fill="white"/>
<path d="M284.882 155.044C284.92 154.973 284.96 154.895 285.004 154.807C285.131 154.561 285.286 154.255 285.47 153.893C285.625 153.524 285.802 153.1 286.004 152.625C286.219 152.154 286.383 151.614 286.589 151.03C286.685 150.737 286.8 150.437 286.893 150.118C286.983 149.8 287.076 149.469 287.173 149.129C287.266 148.789 287.375 148.436 287.462 148.071C287.546 147.705 287.633 147.331 287.72 146.944C287.909 146.173 288.052 145.358 288.208 144.506C288.248 144.293 288.285 144.078 288.326 143.86C288.357 143.641 288.391 143.422 288.425 143.201C288.491 142.758 288.556 142.305 288.624 141.843C288.752 140.922 288.848 139.967 288.96 138.987C289.137 137.023 289.296 134.953 289.367 132.809C289.463 130.667 289.473 128.451 289.47 126.206C289.442 123.959 289.395 121.677 289.286 119.401C289.193 117.122 289.044 114.85 288.888 112.611C288.717 110.376 288.534 108.176 288.323 106.053C287.909 101.804 287.431 97.8491 286.977 94.4652C286.523 91.0813 286.097 88.2686 285.784 86.3051C285.46 84.3416 285.277 83.2178 285.277 83.2178C285.243 83.0086 285.047 82.8619 284.836 82.8931C284.624 82.9243 284.475 83.1241 284.506 83.3364C284.506 83.3364 284.671 84.4633 284.96 86.4268C285.24 88.3935 285.622 91.203 286.02 94.5838C286.421 97.9646 286.834 101.913 287.176 106.153C287.353 108.272 287.499 110.464 287.636 112.693C287.754 114.922 287.869 117.185 287.925 119.448C287.996 121.711 288.009 123.978 288 126.203C287.968 128.429 287.922 130.62 287.794 132.734C287.689 134.847 287.499 136.883 287.294 138.806C287.17 139.764 287.058 140.697 286.921 141.593C286.847 142.04 286.775 142.48 286.707 142.914C286.672 143.129 286.635 143.344 286.601 143.554C286.557 143.763 286.517 143.972 286.477 144.178C286.312 144.999 286.163 145.792 285.967 146.525C285.877 146.894 285.787 147.256 285.703 147.606C285.613 147.955 285.504 148.286 285.411 148.611C285.314 148.935 285.221 149.248 285.131 149.55C285.038 149.85 284.926 150.131 284.829 150.406C284.627 150.949 284.466 151.461 284.258 151.892C284.065 152.329 283.894 152.722 283.745 153.062C283.571 153.387 283.425 153.662 283.307 153.886C283.067 154.333 282.94 154.573 282.94 154.573L282.896 154.654C282.896 154.654 282.896 154.661 282.893 154.661C282.831 154.782 282.797 154.91 282.788 155.038H284.892L284.882 155.044Z" fill="white"/>
<path d="M301.973 90.2008C301.761 90.1633 301.559 90.3069 301.522 90.5192C301.522 90.5192 301.51 90.5816 301.488 90.7065C301.466 90.8282 301.435 91.0155 301.401 91.2653C301.329 91.7647 301.246 92.464 301.14 93.3693C300.929 95.1674 300.627 97.7396 300.267 100.824C299.518 106.986 298.411 115.19 296.901 123.312C296.711 124.327 296.522 125.342 296.316 126.35C296.121 127.358 295.912 128.36 295.701 129.356C295.285 131.345 294.831 133.289 294.374 135.165C294.135 136.102 293.898 137.02 293.668 137.919C293.42 138.812 293.174 139.686 292.935 140.538C292.677 141.381 292.441 142.208 292.186 142.998C291.925 143.784 291.689 144.549 291.431 145.273C291.17 145.995 290.93 146.691 290.682 147.343C290.427 147.992 290.185 148.607 289.958 149.188C289.709 149.756 289.479 150.287 289.261 150.78C289.056 151.276 288.82 151.704 288.631 152.107C288.255 152.912 287.906 153.505 287.68 153.921C287.453 154.333 287.328 154.551 287.328 154.551L287.297 154.604C287.297 154.604 287.294 154.61 287.291 154.614C287.216 154.751 287.185 154.898 287.179 155.044H289.268C289.299 154.988 289.33 154.926 289.367 154.86C289.6 154.42 289.958 153.78 290.334 152.937C290.523 152.516 290.763 152.06 290.968 151.545C291.182 151.033 291.412 150.477 291.658 149.884C291.881 149.285 292.121 148.648 292.369 147.977C292.612 147.303 292.842 146.588 293.097 145.845C293.345 145.102 293.572 144.318 293.824 143.51C294.066 142.701 294.293 141.858 294.539 140.997C294.766 140.129 294.996 139.239 295.235 138.331C295.452 137.416 295.673 136.483 295.9 135.534C296.329 133.63 296.752 131.66 297.137 129.653C297.333 128.647 297.525 127.636 297.706 126.618C297.895 125.601 298.066 124.577 298.237 123.553C299.611 115.362 300.574 107.12 301.214 100.936C301.51 97.9675 301.771 95.339 301.957 93.4629C302.047 92.567 302.119 91.849 302.178 91.387C302.203 91.156 302.228 90.9749 302.249 90.8469C302.268 90.7221 302.277 90.6597 302.277 90.6597V90.6534C302.312 90.4443 302.172 90.2445 301.96 90.207L301.973 90.2008Z" fill="white"/>
<path d="M294.635 132.294C295.881 129.166 299.847 127.006 303.132 130.14C304.627 131.566 303.014 134.348 304.182 135.325C305.351 136.302 307.396 136.645 307.915 138.996C309.087 144.328 302.383 146.366 298.144 143.138C293.908 139.911 293.858 134.248 294.638 132.294H294.635Z" fill="#09A376"/>
<path d="M292.991 155.044C293.146 154.882 293.299 154.72 293.46 154.551C293.578 154.429 293.697 154.301 293.815 154.177C293.933 154.049 294.041 153.905 294.156 153.768C294.613 153.209 295.111 152.634 295.552 151.985C295.779 151.664 296.021 151.348 296.242 151.008C296.456 150.665 296.674 150.321 296.895 149.972C297.121 149.628 297.314 149.26 297.516 148.895C297.712 148.526 297.926 148.167 298.107 147.79C298.464 147.034 298.837 146.285 299.129 145.514C299.459 144.758 299.695 143.981 299.953 143.241C300.065 142.867 300.164 142.492 300.263 142.127C300.313 141.946 300.363 141.765 300.41 141.587C300.447 141.406 300.484 141.228 300.521 141.05C300.593 140.697 300.674 140.354 300.733 140.02C300.779 139.683 300.826 139.358 300.873 139.046C300.925 138.734 300.947 138.431 300.963 138.144C300.981 137.856 301 137.582 301.019 137.326C301.019 136.801 301.006 136.339 300.997 135.965C300.913 135.25 300.863 134.841 300.863 134.841C300.838 134.629 300.649 134.476 300.438 134.497C300.223 134.519 300.068 134.713 300.089 134.928C300.089 134.928 300.133 135.34 300.204 136.058C300.204 136.402 300.204 136.82 300.204 137.298C300.183 137.541 300.164 137.8 300.139 138.075C300.121 138.35 300.096 138.637 300.04 138.936C299.993 139.236 299.943 139.545 299.894 139.87C299.831 140.191 299.751 140.519 299.676 140.859C299.639 141.028 299.598 141.2 299.561 141.375C299.511 141.546 299.462 141.721 299.412 141.896C299.306 142.245 299.21 142.604 299.095 142.967C298.834 143.681 298.595 144.428 298.265 145.158C297.973 145.901 297.6 146.622 297.243 147.349C297.065 147.712 296.848 148.058 296.655 148.411C296.456 148.76 296.264 149.116 296.04 149.444C295.822 149.778 295.608 150.109 295.397 150.437C295.179 150.761 294.94 151.061 294.719 151.37C294.284 151.991 293.796 152.538 293.348 153.068C293.237 153.199 293.131 153.334 293.013 153.455C292.895 153.577 292.78 153.693 292.665 153.811C292.438 154.045 292.217 154.27 292.006 154.486C291.807 154.701 291.596 154.882 291.394 155.057H292.991V155.044Z" fill="white"/>
<path d="M350.611 155.463H219.725C219.511 155.463 219.337 155.288 219.337 155.073C219.337 154.857 219.511 154.682 219.725 154.682H350.611C350.826 154.682 351 154.857 351 155.073C351 155.288 350.826 155.463 350.611 155.463Z" fill="#D5AE0D"/>
<path d="M336.648 159.115H315.318C315.104 159.115 314.93 158.94 314.93 158.725C314.93 158.51 315.104 158.335 315.318 158.335H336.648C336.862 158.335 337.036 158.51 337.036 158.725C337.036 158.94 336.862 159.115 336.648 159.115Z" fill="#D5AE0D"/>
<path d="M51.4824 155.463H0.388488C0.174042 155.463 0 155.288 0 155.073C0 154.857 0.174042 154.682 0.388488 154.682H51.4824C51.6968 154.682 51.8708 154.857 51.8708 155.073C51.8708 155.288 51.6968 155.463 51.4824 155.463Z" fill="#D5AE0D"/>
<path d="M259.081 152.616C270.795 149.332 279.633 161.088 284.982 161.172C290.331 161.257 297.112 156.974 300.22 156.63C304.54 156.156 310.377 158.765 313.534 163.951H252.172C251.616 160.52 252.16 154.554 259.078 152.616H259.081Z" fill="#09A376"/>
<path d="M33.6864 150.602C44.4646 146.532 66.7514 159.571 70.7854 159.636C74.8195 159.699 84.3669 155.516 86.7165 155.338C102.393 154.161 108.13 160.055 111.58 163.951H28.6423C28.6423 163.951 23.9307 154.289 33.6864 150.602Z" fill="#09A376"/>
<path d="M108.152 163.951C105.199 154.171 131.287 159.908 136.39 159.68C141.49 159.452 151.271 146.488 168.529 151.083C177.899 153.577 192.397 160.729 197.143 161.616C204.767 163.039 213.14 156.871 223.284 163.951H108.152Z" fill="#26D49E"/>
<path d="M162.692 182.831C100.364 171.068 74.0738 204.358 23.9341 163.954H329.335C301.728 198.879 220.76 193.791 162.692 182.831Z" fill="url(#paint0_linear_94_5382)"/>
<path d="M142.202 169.304H108.155C107.941 169.304 107.767 169.13 107.767 168.914C107.767 168.699 107.941 168.524 108.155 168.524H142.202C142.417 168.524 142.591 168.699 142.591 168.914C142.591 169.13 142.417 169.304 142.202 169.304Z" fill="#D5AE0D"/>
<path d="M154.693 169.304H146.609C146.395 169.304 146.221 169.13 146.221 168.914C146.221 168.699 146.395 168.524 146.609 168.524H154.693C154.907 168.524 155.081 168.699 155.081 168.914C155.081 169.13 154.907 169.304 154.693 169.304Z" fill="#D5AE0D"/>
<path d="M340.15 164.344H19.1136C18.8991 164.344 18.7251 164.169 18.7251 163.954C18.7251 163.738 18.8991 163.563 19.1136 163.563H340.15C340.365 163.563 340.539 163.738 340.539 163.954C340.539 164.169 340.365 164.344 340.15 164.344Z" fill="#D5AE0D"/>
<path opacity="0.3" d="M168.741 126.606L168.762 103.921C168.762 103.106 169.421 102.444 170.233 102.444H177.772C182.736 102.444 186.49 104.061 188.215 108.738L195.456 128.086H170.214C169.403 128.086 168.744 127.424 168.744 126.609L168.741 126.606Z" fill="url(#paint1_linear_94_5382)"/>
<path d="M201.513 135.094L191.459 107.823C189.448 102.369 184.271 98.7512 178.481 98.7512H155.206V142.436H202.598C202.598 137.935 201.513 135.097 201.513 135.097V135.094ZM170.195 128.086C169.384 128.086 168.725 127.424 168.725 126.606L168.747 103.921C168.747 103.106 169.406 102.444 170.217 102.444H177.772C182.735 102.444 186.49 104.061 188.215 108.737L195.456 128.086H170.195Z" fill="white"/>
<path d="M149.96 90.969H67.1341C64.2376 90.969 61.8911 93.3259 61.8911 96.2353V142.433H155.203V96.2353C155.203 93.3259 152.856 90.969 149.96 90.969Z" fill="white"/>
<path d="M148.636 96.3821H68.7252C67.6623 96.3821 66.7983 97.2499 66.7983 98.3175V142.433H150.562V98.3175C150.562 97.2499 149.698 96.3821 148.636 96.3821Z" fill="url(#paint2_linear_94_5382)"/>
<path d="M202.595 142.433H61.8911V152.366H192.808C198.216 152.366 202.598 147.965 202.598 142.533V142.433H202.595Z" fill="#21505F"/>
<path d="M104.494 152.363C104.494 144.394 98.0606 137.932 90.1261 137.932C82.1917 137.932 75.7583 144.394 75.7583 152.363H104.494Z" fill="#133641"/>
<path d="M185.1 152.363C185.1 144.394 178.667 137.932 170.733 137.932C162.798 137.932 156.365 144.394 156.365 152.363H185.1Z" fill="#133641"/>
<path d="M156.051 98.7483H155.203V142.433H156.051V98.7483Z" fill="#BFDFDF"/>
<path d="M156.051 142.433H155.203V152.366H156.051V142.433Z" fill="#18424C"/>
<path d="M90.1263 163.77C96.3982 163.77 101.483 158.663 101.483 152.363C101.483 146.063 96.3982 140.957 90.1263 140.957C83.8544 140.957 78.77 146.063 78.77 152.363C78.77 158.663 83.8544 163.77 90.1263 163.77Z" fill="#21505F"/>
<path d="M91.7916 159.5C95.7178 158.579 98.157 154.635 97.2398 150.691C96.3225 146.748 92.3961 144.298 88.4699 145.219C84.5437 146.14 82.1044 150.084 83.0217 154.028C83.939 157.971 87.8654 160.421 91.7916 159.5Z" fill="#39A3DB"/>
<path d="M90.1262 156.087C92.1739 156.087 93.8339 154.42 93.8339 152.363C93.8339 150.306 92.1739 148.639 90.1262 148.639C88.0785 148.639 86.4185 150.306 86.4185 152.363C86.4185 154.42 88.0785 156.087 90.1262 156.087Z" fill="#2CA7A1"/>
<path d="M102.909 151.164C102.716 151.164 102.549 151.018 102.524 150.821C102.104 147.384 100.255 144.244 97.4516 142.199C97.2776 142.071 97.2372 141.827 97.3646 141.653C97.492 141.478 97.7344 141.437 97.9085 141.565C100.889 143.735 102.853 147.072 103.298 150.724C103.322 150.94 103.173 151.133 102.959 151.161C102.943 151.161 102.928 151.161 102.912 151.161L102.909 151.164Z" fill="white"/>
<path d="M170.73 163.77C177.002 163.77 182.086 158.663 182.086 152.363C182.086 146.063 177.002 140.957 170.73 140.957C164.458 140.957 159.374 146.063 159.374 152.363C159.374 158.663 164.458 163.77 170.73 163.77Z" fill="#21505F"/>
<path d="M177.552 154.967C178.984 151.182 177.09 146.947 173.321 145.508C169.552 144.069 165.336 145.971 163.903 149.757C162.471 153.543 164.365 157.778 168.134 159.217C171.903 160.655 176.119 158.753 177.552 154.967Z" fill="#39A3DB"/>
<path d="M170.73 156.087C172.777 156.087 174.437 154.42 174.437 152.363C174.437 150.306 172.777 148.639 170.73 148.639C168.682 148.639 167.022 150.306 167.022 152.363C167.022 154.42 168.682 156.087 170.73 156.087Z" fill="#2CA7A1"/>
<path d="M180.1 143.931C179.997 143.931 179.892 143.891 179.817 143.806C177.436 141.256 174.21 139.854 170.733 139.854C170.518 139.854 170.344 139.68 170.344 139.464C170.344 139.249 170.518 139.074 170.733 139.074C174.375 139.074 177.893 140.607 180.386 143.276C180.532 143.432 180.526 143.682 180.367 143.828C180.293 143.9 180.196 143.934 180.1 143.934V143.931Z" fill="white"/>
<path d="M176.256 164.403C176.109 164.403 175.97 164.322 175.904 164.182C175.811 163.988 175.895 163.754 176.088 163.661C180.398 161.594 183.183 157.161 183.183 152.366C183.183 152.151 183.357 151.976 183.572 151.976C183.786 151.976 183.96 152.151 183.96 152.366C183.96 157.461 181.001 162.171 176.42 164.369C176.367 164.394 176.308 164.407 176.252 164.407L176.256 164.403Z" fill="white"/>
<path d="M170.73 162.727C165.042 162.727 160.415 158.079 160.415 152.366C160.415 146.654 165.042 142.005 170.73 142.005C176.417 142.005 181.045 146.654 181.045 152.366C181.045 158.079 176.417 162.727 170.73 162.727ZM170.73 142.786C165.471 142.786 161.195 147.081 161.195 152.363C161.195 157.645 165.471 161.94 170.73 161.94C175.988 161.94 180.265 157.645 180.265 152.363C180.265 147.081 175.988 142.786 170.73 142.786Z" fill="#26606D"/>
<path d="M170.73 161.4C165.77 161.4 161.732 157.345 161.732 152.363C161.732 147.381 165.77 143.326 170.73 143.326C175.69 143.326 179.727 147.381 179.727 152.363C179.727 157.345 175.69 161.4 170.73 161.4ZM170.73 144.109C166.198 144.109 162.513 147.812 162.513 152.363C162.513 156.915 166.198 160.617 170.73 160.617C175.261 160.617 178.947 156.915 178.947 152.363C178.947 147.812 175.261 144.109 170.73 144.109Z" fill="#26606D"/>
<path opacity="0.24" d="M176.016 147.306C173.234 144.375 168.613 144.262 165.695 147.056C162.776 149.85 162.664 154.492 165.446 157.423L176.016 147.306Z" fill="white"/>
<path d="M90.1262 162.727C84.4387 162.727 79.811 158.079 79.811 152.366C79.811 146.654 84.4387 142.005 90.1262 142.005C95.8136 142.005 100.441 146.654 100.441 152.366C100.441 158.079 95.8136 162.727 90.1262 162.727ZM90.1262 142.786C84.8676 142.786 80.5911 147.081 80.5911 152.363C80.5911 157.645 84.8676 161.94 90.1262 161.94C95.3847 161.94 99.6612 157.645 99.6612 152.363C99.6612 147.081 95.3847 142.786 90.1262 142.786Z" fill="#26606D"/>
<path d="M90.1263 161.4C85.1661 161.4 81.1289 157.345 81.1289 152.363C81.1289 147.381 85.1661 143.326 90.1263 143.326C95.0865 143.326 99.1236 147.381 99.1236 152.363C99.1236 157.345 95.0865 161.4 90.1263 161.4ZM90.1263 144.109C85.595 144.109 81.909 147.812 81.909 152.363C81.909 156.915 85.595 160.617 90.1263 160.617C94.6576 160.617 98.3436 156.915 98.3436 152.363C98.3436 147.812 94.6576 144.109 90.1263 144.109Z" fill="#26606D"/>
<path opacity="0.24" d="M95.4095 147.306C92.6279 144.375 88.0064 144.262 85.0881 147.056C82.1698 149.85 82.0579 154.492 84.8395 157.423L95.4095 147.306Z" fill="white"/>
<path d="M95.4191 164.553C95.27 164.553 95.1301 164.469 95.0648 164.322C94.9747 164.126 95.0649 163.895 95.2606 163.804C98.6172 162.281 101.122 159.378 102.135 155.831C102.194 155.622 102.409 155.504 102.617 155.563C102.825 155.622 102.943 155.841 102.884 156.047C101.809 159.815 99.1455 162.902 95.5839 164.519C95.531 164.544 95.4782 164.553 95.4223 164.553H95.4191Z" fill="white"/>
<path d="M189.007 107.873L196.479 128.136H198.977L191.506 107.873C191.049 106.634 190.428 105.491 189.676 104.464H187.167C187.885 105.463 188.566 106.677 189.007 107.873Z" fill="#BFDFDF"/>
<path d="M191.543 125.857H189.222V116.302H191.543C192.271 116.302 192.858 116.892 192.858 117.622V124.537C192.858 125.267 192.271 125.857 191.543 125.857Z" fill="#21505F"/>
<path d="M189.222 116.298H187.338V125.854H189.222V116.298Z" fill="white"/>
<path d="M195.885 128.62L192.121 118.412H191.04L195.114 129.303H195.419C195.767 129.297 196.006 128.947 195.885 128.62Z" fill="#21505F"/>
<path d="M144.225 163.773H170.838C170.838 163.773 168.52 161.956 167.308 161.975C166.096 161.993 166.077 162.961 166.077 162.961C166.077 162.961 162.528 160.401 159.271 161.179C157.462 161.61 158.217 163.189 158.217 163.189C158.217 163.189 153.593 160.195 150.945 161.01C148.794 161.672 148.89 163.217 148.89 163.217C148.89 163.217 146.808 161.734 145.043 162.053C143.277 162.371 144.225 163.773 144.225 163.773Z" fill="white"/>
<path d="M156.937 158.603C156.937 158.285 156.679 158.026 156.362 158.026C156.045 158.026 155.787 158.285 155.787 158.603C155.787 158.922 156.045 159.181 156.362 159.181C156.679 159.181 156.937 158.922 156.937 158.603Z" fill="#D5AE0D"/>
<path d="M139.157 158.603C139.493 158.603 139.766 158.329 139.766 157.991C139.766 157.654 139.493 157.38 139.157 157.38C138.82 157.38 138.547 157.654 138.547 157.991C138.547 158.329 138.82 158.603 139.157 158.603Z" fill="#D5AE0D"/>
<path d="M151.588 156.506C151.588 156.109 151.268 155.784 150.87 155.784C150.472 155.784 150.152 156.106 150.152 156.506C150.152 156.905 150.472 157.227 150.87 157.227C151.268 157.227 151.588 156.905 151.588 156.506Z" fill="#D5AE0D"/>
<path d="M130.728 146.226C131.018 146.226 131.253 145.99 131.253 145.698C131.253 145.407 131.018 145.171 130.728 145.171C130.438 145.171 130.203 145.407 130.203 145.698C130.203 145.99 130.438 146.226 130.728 146.226Z" fill="#D5AE0D"/>
<path d="M148.073 147.524C148.073 147.225 147.834 146.984 147.535 146.984C147.237 146.984 146.998 147.225 146.998 147.524C146.998 147.824 147.237 148.064 147.535 148.064C147.834 148.064 148.073 147.824 148.073 147.524Z" fill="#D5AE0D"/>
<path d="M142.096 151.127C142.096 150.861 141.882 150.646 141.618 150.646C141.354 150.646 141.139 150.861 141.139 151.127C141.139 151.392 141.354 151.607 141.618 151.607C141.882 151.607 142.096 151.392 142.096 151.127Z" fill="#D5AE0D"/>
<path d="M159.377 156.253C159.548 156.253 159.687 156.113 159.687 155.94C159.687 155.768 159.548 155.628 159.377 155.628C159.205 155.628 159.066 155.768 159.066 155.94C159.066 156.113 159.205 156.253 159.377 156.253Z" fill="#D5AE0D"/>
<path d="M160.387 162.618C160.387 162.446 160.247 162.306 160.076 162.306C159.905 162.306 159.765 162.446 159.765 162.618C159.765 162.79 159.905 162.93 160.076 162.93C160.247 162.93 160.387 162.79 160.387 162.618Z" fill="#D5AE0D"/>
<path d="M153.192 149.229C153.192 149.082 153.074 148.963 152.928 148.963C152.782 148.963 152.664 149.082 152.664 149.229C152.664 149.375 152.782 149.494 152.928 149.494C153.074 149.494 153.192 149.375 153.192 149.229Z" fill="#D5AE0D"/>
<path d="M150.727 151.317C150.727 151.177 150.615 151.064 150.475 151.064C150.336 151.064 150.224 151.177 150.224 151.317C150.224 151.458 150.336 151.57 150.475 151.57C150.615 151.57 150.727 151.458 150.727 151.317Z" fill="#D5AE0D"/>
<path d="M88.4727 163.77H72.1003C72.1003 163.77 68.7779 161.385 70.1423 160.664C71.9853 159.687 76.3333 162.755 76.3333 162.755C76.3333 162.755 76.2183 161.566 77.1755 161.194C78.4653 160.692 81.0479 162.596 81.0479 162.596C81.0479 162.596 80.964 161.728 81.971 161.354C84.737 160.32 88.4696 163.77 88.4696 163.77H88.4727Z" fill="white"/>
<path d="M49.9814 163.77H60.166C60.166 163.77 53.0675 159.29 50.8485 159.668C48.0141 160.152 49.9845 163.77 49.9845 163.77H49.9814Z" fill="white"/>
<path d="M67.6001 163.017C67.9812 163.017 68.2901 162.707 68.2901 162.324C68.2901 161.942 67.9812 161.631 67.6001 161.631C67.2191 161.631 66.9102 161.942 66.9102 162.324C66.9102 162.707 67.2191 163.017 67.6001 163.017Z" fill="#D5AE0D"/>
<path d="M74.1393 154.389C74.1393 153.937 73.7757 153.571 73.325 153.571C72.8744 153.571 72.5107 153.937 72.5107 154.389C72.5107 154.842 72.8744 155.207 73.325 155.207C73.7757 155.207 74.1393 154.842 74.1393 154.389Z" fill="#D5AE0D"/>
<path d="M79.5409 159.181C79.5409 158.753 79.1959 158.404 78.767 158.404C78.3381 158.404 77.9932 158.75 77.9932 159.181C77.9932 159.612 78.3381 159.958 78.767 159.958C79.1959 159.958 79.5409 159.612 79.5409 159.181Z" fill="#D5AE0D"/>
<path d="M42.0284 157.495C42.0284 157.096 41.7051 156.768 41.3042 156.768C40.9033 156.768 40.5801 157.092 40.5801 157.495C40.5801 157.898 40.9033 158.223 41.3042 158.223C41.7051 158.223 42.0284 157.898 42.0284 157.495Z" fill="#D5AE0D"/>
<path d="M72.268 145.539H54.4349C54.2204 145.539 54.0464 145.364 54.0464 145.149C54.0464 144.933 54.2204 144.759 54.4349 144.759H72.268C72.4825 144.759 72.6565 144.933 72.6565 145.149C72.6565 145.364 72.4825 145.539 72.268 145.539Z" fill="white"/>
<path d="M72.268 106.337H54.4349C54.2204 106.337 54.0464 106.162 54.0464 105.947C54.0464 105.731 54.2204 105.557 54.4349 105.557H72.268C72.4825 105.557 72.6565 105.731 72.6565 105.947C72.6565 106.162 72.4825 106.337 72.268 106.337Z" fill="white"/>
<path d="M144.788 149.622H116.693C116.478 149.622 116.304 149.447 116.304 149.232C116.304 149.017 116.478 148.842 116.693 148.842H144.788C145.003 148.842 145.177 149.017 145.177 149.232C145.177 149.447 145.003 149.622 144.788 149.622Z" fill="white"/>
<path d="M152.928 145.539H135.937C135.722 145.539 135.548 145.364 135.548 145.149C135.548 144.933 135.722 144.759 135.937 144.759H152.928C153.142 144.759 153.316 144.933 153.316 145.149C153.316 145.364 153.142 145.539 152.928 145.539Z" fill="white"/>
<path d="M168.725 130.78V131.56H175.82V130.78C175.82 130.33 175.456 129.965 175.009 129.965H169.533C169.085 129.965 168.722 130.33 168.722 130.78H168.725Z" fill="#BFDFDF"/>
<path d="M165.502 102.444H160.38C159.541 102.444 158.86 103.128 158.86 103.971V126.559C158.86 127.402 159.541 128.086 160.38 128.086H165.502C166.341 128.086 167.022 127.402 167.022 126.559V103.971C167.022 103.128 166.341 102.444 165.502 102.444Z" fill="#E9F3FF"/>
<path d="M196.155 141.191H202.567C202.396 137.42 201.513 135.091 201.513 135.091L200.556 132.49H196.158C195.487 132.49 194.946 133.037 194.946 133.708V139.97C194.946 140.644 195.49 141.187 196.158 141.187L196.155 141.191Z" fill="#39A3DB"/>
<path opacity="0.24" d="M201.513 135.094L200.556 132.494H196.158C195.487 132.494 194.946 133.04 194.946 133.711V139.973C194.946 140.647 195.49 141.191 196.158 141.191H196.18L201.756 135.856C201.616 135.362 201.516 135.094 201.516 135.094H201.513Z" fill="white"/>
<path d="M174.68 116.963L176.952 113.879L174.782 110.345L171.904 110.82L174.68 116.963Z" fill="#F5C3B0"/>
<path d="M179.481 108.326C179.733 109.081 179.969 112.777 179.115 113.854C178.288 114.897 176.849 114.588 176.072 113.414C175.292 112.24 173.508 109.012 175.513 107.324C176.616 106.396 179.115 107.224 179.481 108.326Z" fill="#F5C3B0"/>
<path d="M174.313 110.22C173.623 111.048 174.724 112.808 174.724 112.808C174.724 112.808 175.488 111.6 175.292 110.592C175.097 109.58 174.313 110.22 174.313 110.22Z" fill="#21505F"/>
<path d="M179.712 110.517L180.358 111.766C180.237 112.265 179.513 112.637 179.513 112.637L179.712 110.52V110.517Z" fill="#E2A18D"/>
<path d="M176.023 114.126C176.657 115.249 177.62 116.264 178.969 116.039C180.843 115.73 180.796 113.414 179.637 112.172C179.031 111.522 177.241 113.286 176.778 112.484C176.551 112.093 175.926 109.855 175.926 109.855L174.649 110.111C174.649 110.111 174.876 112.087 176.026 114.126H176.023Z" fill="#21505F"/>
<path d="M170.117 110.882C169.806 110.536 169.185 110.121 168.703 109.99V110.82L169.822 111.048L170.117 110.882Z" fill="#21505F"/>
<path d="M176.426 109.206C176.911 109.849 180.634 110.82 181.038 107.414C179.767 107.333 179.093 108.076 179.093 108.076L176.426 109.206Z" fill="#21505F"/>
<path d="M169.741 110.82H168.703V126.331C168.703 127.156 169.368 127.824 170.189 127.824H173.287C173.287 127.824 174.549 123.594 174.897 118.399C174.928 117.912 172.355 112.515 172.355 112.515L169.741 110.82Z" fill="#F05922"/>
<path d="M173.412 127.383C173.62 126.609 174.055 124.867 174.415 122.607L168.703 119.66V122.791C169.222 123.378 171.196 126.353 173.412 127.387V127.383Z" fill="#39A3DB"/>
<path d="M183.755 124.605L184.146 123.547C184.218 123.35 184.408 123.219 184.616 123.219H184.625C184.973 123.219 185.216 123.569 185.094 123.9L184.787 124.724L183.758 124.605H183.755Z" fill="#21505F"/>
<path d="M169.741 110.82L171.802 110.708C174.596 114.132 174.897 118.402 174.897 118.402C174.897 118.402 171.674 112.68 169.741 110.823V110.82Z" fill="#39A3DB"/>
<path d="M175.05 123.219C175.165 122.673 174.782 121.874 174.897 121.209C173.978 122.579 172.874 124.34 168.809 126.875C168.992 127.343 169.4 127.696 169.9 127.795C170.419 127.602 173.782 125.386 175.05 123.222V123.219Z" fill="#21505F"/>
<path d="M168.104 119.657L172.983 115.206C175.687 120.328 180.694 124.427 181.716 124.574C182.739 124.721 183.466 123.781 184.286 123.765C185.166 123.75 185.644 124.312 185.772 124.755C185.868 125.098 185.716 125.832 185.24 126.431C184.765 127.031 183.873 127.174 183.873 127.174L183.606 126.272L182.801 127.162C182.801 127.162 181.828 127.558 180.411 127.53C174.841 127.415 168.107 119.654 168.107 119.654L168.104 119.657Z" fill="#F5C3B0"/>
<path d="M182.555 127.824L183.012 126.581C183.084 126.385 183.273 126.253 183.481 126.253H183.491C183.839 126.253 184.081 126.603 183.96 126.934L183.627 127.824H182.555Z" fill="#21505F"/>
<path d="M174.22 109.974C173.981 106.808 177.863 104.533 179.895 108.132C177.682 109.468 174.22 109.974 174.22 109.974Z" fill="#F05922"/>
<path d="M174.82 111.36C174.82 111.841 175.208 112.231 175.687 112.231C176.166 112.231 176.554 111.841 176.554 111.36C176.554 110.879 176.166 110.489 175.687 110.489C175.208 110.489 174.82 110.879 174.82 111.36Z" fill="#F5C3B0"/>
<path d="M176.091 111.36C176.091 111.135 175.911 110.954 175.687 110.954C175.463 110.954 175.283 111.135 175.283 111.36C175.283 111.585 175.463 111.766 175.687 111.766C175.911 111.766 176.091 111.585 176.091 111.36Z" fill="#E2A18D"/>
<path d="M174.22 110.364C174.033 110.364 173.869 110.23 173.837 110.039C173.8 109.827 173.943 109.624 174.154 109.587C174.931 109.452 179.239 108.229 181.169 106.546C181.331 106.406 181.576 106.421 181.719 106.584C181.859 106.746 181.843 106.993 181.682 107.136C179.494 109.043 174.838 110.261 174.288 110.358C174.266 110.361 174.245 110.364 174.223 110.364H174.22Z" fill="#39A3DB"/>
</g>
<defs>
<linearGradient id="paint0_linear_94_5382" x1="176.635" y1="165.346" x2="176.635" y2="217.494" gradientUnits="userSpaceOnUse">
<stop stop-color="#FFE467"/>
<stop offset="1" stop-color="white"/>
</linearGradient>
<linearGradient id="paint1_linear_94_5382" x1="168.741" y1="115.265" x2="195.456" y2="115.265" gradientUnits="userSpaceOnUse">
<stop stop-color="#E9F3FF"/>
<stop offset="1" stop-color="white"/>
</linearGradient>
<linearGradient id="paint2_linear_94_5382" x1="76.352" y1="87.504" x2="111.989" y2="122.983" gradientUnits="userSpaceOnUse">
<stop stop-color="#E9F3FF"/>
<stop offset="1" stop-color="white"/>
</linearGradient>
<clipPath id="clip0_94_5382">
<rect width="351" height="191" fill="white"/>
</clipPath>
</defs>
</svg>
