<svg width="18" height="14" viewBox="0 0 18 14" fill="none" xmlns="http://www.w3.org/2000/svg">
<path d="M16.25 0.75H1.25C0.918479 0.75 0.600537 0.881696 0.366116 1.11612C0.131696 1.35054 0 1.66848 0 2V12C0 12.3315 0.131696 12.6495 0.366116 12.8839C0.600537 13.1183 0.918479 13.25 1.25 13.25H16.25C16.5815 13.25 16.8995 13.1183 17.1339 12.8839C17.3683 12.6495 17.5 12.3315 17.5 12V2C17.5 1.66848 17.3683 1.35054 17.1339 1.11612C16.8995 0.881696 16.5815 0.75 16.25 0.75ZM14.875 2L8.75 6.2375L2.625 2H14.875ZM1.25 12V2.56875L8.39375 7.5125C8.49837 7.58508 8.62267 7.62397 8.75 7.62397C8.87733 7.62397 9.00163 7.58508 9.10625 7.5125L16.25 2.56875V12H1.25Z" fill="#B6B6B6"/>
</svg>
