<svg width="10" height="18" viewBox="0 0 10 18" fill="none" xmlns="http://www.w3.org/2000/svg">
<path d="M3.793 11.024V16.331L4.539 17.449C4.57622 17.5045 4.62652 17.55 4.68547 17.5814C4.74441 17.6129 4.81019 17.6293 4.877 17.6293C4.94381 17.6293 5.00959 17.6129 5.06854 17.5814C5.12748 17.55 5.17779 17.5045 5.215 17.449L5.96 16.331V11.024C5.24395 11.1623 4.50806 11.1623 3.792 11.024H3.793ZM4.877 0.290039C3.91242 0.290039 2.9695 0.57607 2.16749 1.11196C1.36547 1.64785 0.74037 2.40954 0.371242 3.30069C0.00211313 4.19185 -0.0944677 5.17245 0.0937124 6.11849C0.281893 7.06454 0.746382 7.93354 1.42844 8.6156C2.1105 9.29766 2.9795 9.76215 3.92555 9.95033C4.87159 10.1385 5.85219 10.0419 6.74335 9.6728C7.6345 9.30367 8.39619 8.67857 8.93208 7.87655C9.46797 7.07454 9.754 6.13162 9.754 5.16704C9.754 3.87358 9.24018 2.63309 8.32556 1.71848C7.41095 0.803864 6.17046 0.290039 4.877 0.290039V0.290039ZM4.877 2.86404C4.26741 2.86536 3.68316 3.1081 3.25212 3.53915C2.82107 3.9702 2.57832 4.55445 2.577 5.16404C2.577 5.27185 2.53417 5.37524 2.45794 5.45148C2.38171 5.52771 2.27831 5.57054 2.1705 5.57054C2.06269 5.57054 1.9593 5.52771 1.88306 5.45148C1.80683 5.37524 1.764 5.27185 1.764 5.16404C1.76585 4.33899 2.09442 3.54826 2.67782 2.96486C3.26122 2.38146 4.05195 2.05289 4.877 2.05104C4.98481 2.05104 5.08821 2.09387 5.16444 2.1701C5.24067 2.24633 5.2835 2.34973 5.2835 2.45754C5.2835 2.56535 5.24067 2.66874 5.16444 2.74498C5.08821 2.82121 4.98481 2.86404 4.877 2.86404Z" fill="#007EC2"/>
</svg>
