<svg width="13" height="20" viewBox="0 0 13 20" fill="none" xmlns="http://www.w3.org/2000/svg">
<path d="M6.00006 18C7.06092 18 8.07834 17.5786 8.82848 16.8284C9.57863 16.0783 10.0001 15.0609 10.0001 14C10.0001 12.9391 9.57863 11.9217 8.82848 11.1716C8.07834 10.4214 7.06092 10 6.00006 10C4.93919 10 3.92177 10.4214 3.17163 11.1716C2.42148 11.9217 2.00006 12.9391 2.00006 14C2.00006 15.0609 2.42148 16.0783 3.17163 16.8284C3.92177 17.5786 4.93919 18 6.00006 18V18ZM2.00006 9.528V4C2.00006 2.93913 2.42148 1.92172 3.17163 1.17157C3.92177 0.421427 4.93919 0 6.00006 0C7.06092 0 8.07834 0.421427 8.82848 1.17157C9.57863 1.92172 10.0001 2.93913 10.0001 4V5C10.0001 5.26522 9.8947 5.51957 9.70716 5.70711C9.51963 5.89464 9.26527 6 9.00006 6C8.73484 6 8.48049 5.89464 8.29295 5.70711C8.10541 5.51957 8.00006 5.26522 8.00006 5V4C8.00006 3.46957 7.78934 2.96086 7.41427 2.58579C7.0392 2.21071 6.53049 2 6.00006 2C5.46962 2 4.96092 2.21071 4.58584 2.58579C4.21077 2.96086 4.00006 3.46957 4.00006 4V8.341C5.4048 7.84368 6.94435 7.88691 8.31898 8.46226C9.69361 9.0376 10.805 10.1039 11.4367 11.4536C12.0684 12.8032 12.1752 14.3397 11.7364 15.7638C11.2976 17.1879 10.3446 18.3978 9.0628 19.1578C7.78103 19.9179 6.26229 20.1738 4.80223 19.8757C3.34216 19.5777 2.04527 18.7469 1.16402 17.5452C0.282775 16.3436 -0.119762 14.8569 0.0347758 13.3748C0.189314 11.8926 0.889868 10.521 2.00006 9.527V9.528ZM6.00006 16C5.46962 16 4.96092 15.7893 4.58584 15.4142C4.21077 15.0391 4.00006 14.5304 4.00006 14C4.00006 13.4696 4.21077 12.9609 4.58584 12.5858C4.96092 12.2107 5.46962 12 6.00006 12C6.53049 12 7.0392 12.2107 7.41427 12.5858C7.78934 12.9609 8.00006 13.4696 8.00006 14C8.00006 14.5304 7.78934 15.0391 7.41427 15.4142C7.0392 15.7893 6.53049 16 6.00006 16Z" fill="#484A4B"/>
</svg>
