<svg width="13" height="20" viewBox="0 0 13 20" fill="none" xmlns="http://www.w3.org/2000/svg">
<path d="M6.03866 18C7.09953 18 8.11694 17.5786 8.86709 16.8284C9.61723 16.0783 10.0387 15.0609 10.0387 14C10.0387 12.9391 9.61723 11.9217 8.86709 11.1716C8.11694 10.4214 7.09953 10 6.03866 10C4.9778 10 3.96038 10.4214 3.21023 11.1716C2.46009 11.9217 2.03866 12.9391 2.03866 14C2.03866 15.0609 2.46009 16.0783 3.21023 16.8284C3.96038 17.5786 4.9778 18 6.03866 18ZM2.03866 9.528V4C2.03866 2.93913 2.46009 1.92172 3.21023 1.17157C3.96038 0.421427 4.9778 0 6.03866 0C7.09953 0 8.11694 0.421427 8.86709 1.17157C9.61723 1.92172 10.0387 2.93913 10.0387 4V5C10.0387 5.26522 9.9333 5.51957 9.74577 5.70711C9.55823 5.89464 9.30388 6 9.03866 6C8.77344 6 8.51909 5.89464 8.33155 5.70711C8.14402 5.51957 8.03866 5.26522 8.03866 5V4C8.03866 3.46957 7.82795 2.96086 7.45287 2.58579C7.0778 2.21071 6.56909 2 6.03866 2C5.50823 2 4.99952 2.21071 4.62445 2.58579C4.24937 2.96086 4.03866 3.46957 4.03866 4V8.341C5.44341 7.84368 6.98295 7.88691 8.35759 8.46226C9.73222 9.0376 10.8436 10.1039 11.4753 11.4536C12.107 12.8032 12.2138 14.3397 11.775 15.7638C11.3362 17.1879 10.3832 18.3978 9.1014 19.1578C7.81964 19.9179 6.3009 20.1738 4.84083 19.8757C3.38077 19.5777 2.08388 18.7469 1.20263 17.5452C0.32138 16.3436 -0.0811574 14.8569 0.0733806 13.3748C0.227919 11.8926 0.928472 10.521 2.03866 9.527V9.528ZM6.03866 16C5.50823 16 4.99952 15.7893 4.62445 15.4142C4.24937 15.0391 4.03866 14.5304 4.03866 14C4.03866 13.4696 4.24937 12.9609 4.62445 12.5858C4.99952 12.2107 5.50823 12 6.03866 12C6.56909 12 7.0778 12.2107 7.45287 12.5858C7.82795 12.9609 8.03866 13.4696 8.03866 14C8.03866 14.5304 7.82795 15.0391 7.45287 15.4142C7.0778 15.7893 6.56909 16 6.03866 16Z" fill="#B6B6B6"/>
</svg>
