<svg width="19" height="17" viewBox="0 0 19 17" fill="none" xmlns="http://www.w3.org/2000/svg">
<path d="M3.51312 16.2361C3.24791 16.2361 2.99355 16.1307 2.80602 15.9432C2.61848 15.7556 2.51312 15.5013 2.51312 15.2361V9.99707C2.51312 9.73185 2.61848 9.4775 2.80602 9.28996C2.99355 9.10243 3.24791 8.99707 3.51312 8.99707C3.77834 8.99707 4.03269 9.10243 4.22023 9.28996C4.40777 9.4775 4.51312 9.73185 4.51312 9.99707V15.2361C4.51312 15.5013 4.40777 15.7556 4.22023 15.9432C4.03269 16.1307 3.77834 16.2361 3.51312 16.2361Z" fill="white"/>
<path d="M3.51312 8.00365C3.24791 8.00365 2.99355 7.89829 2.80602 7.71076C2.61848 7.52322 2.51312 7.26887 2.51312 7.00365V1.76465C2.51312 1.49943 2.61848 1.24508 2.80602 1.05754C2.99355 0.870005 3.24791 0.764648 3.51312 0.764648C3.77834 0.764648 4.03269 0.870005 4.22023 1.05754C4.40777 1.24508 4.51312 1.49943 4.51312 1.76465V7.00365C4.51312 7.26887 4.40777 7.52322 4.22023 7.71076C4.03269 7.89829 3.77834 8.00365 3.51312 8.00365Z" fill="white"/>
<path d="M9.50012 16.235C9.23491 16.235 8.98055 16.1296 8.79301 15.9421C8.60548 15.7546 8.50012 15.5002 8.50012 15.235V8.5C8.50012 8.23478 8.60548 7.98043 8.79301 7.79289C8.98055 7.60536 9.23491 7.5 9.50012 7.5C9.76534 7.5 10.0197 7.60536 10.2072 7.79289C10.3948 7.98043 10.5001 8.23478 10.5001 8.5V15.235C10.5001 15.5002 10.3948 15.7546 10.2072 15.9421C10.0197 16.1296 9.76534 16.235 9.50012 16.235Z" fill="white"/>
<path d="M9.50012 6.50665C9.23491 6.50665 8.98055 6.40129 8.79301 6.21376C8.60548 6.02622 8.50012 5.77186 8.50012 5.50665V1.76465C8.50012 1.49943 8.60548 1.24508 8.79301 1.05754C8.98055 0.870005 9.23491 0.764648 9.50012 0.764648C9.76534 0.764648 10.0197 0.870005 10.2072 1.05754C10.3948 1.24508 10.5001 1.49943 10.5001 1.76465V5.50665C10.5001 5.77186 10.3948 6.02622 10.2072 6.21376C10.0197 6.40129 9.76534 6.50665 9.50012 6.50665Z" fill="white"/>
<path d="M15.4871 16.2352C15.2219 16.2352 14.9676 16.1298 14.78 15.9423C14.5925 15.7547 14.4871 15.5004 14.4871 15.2352V11.4932C14.4871 11.2279 14.5925 10.9736 14.78 10.7861C14.9676 10.5985 15.2219 10.4932 15.4871 10.4932C15.7523 10.4932 16.0067 10.5985 16.1942 10.7861C16.3818 10.9736 16.4871 11.2279 16.4871 11.4932V15.2352C16.4871 15.5004 16.3818 15.7547 16.1942 15.9423C16.0067 16.1298 15.7523 16.2352 15.4871 16.2352Z" fill="white"/>
<path d="M15.4871 9.49965C15.2219 9.49965 14.9676 9.39429 14.78 9.20676C14.5925 9.01922 14.4871 8.76486 14.4871 8.49965V1.76465C14.4871 1.49943 14.5925 1.24508 14.78 1.05754C14.9676 0.870005 15.2219 0.764648 15.4871 0.764648C15.7523 0.764648 16.0067 0.870005 16.1942 1.05754C16.3818 1.24508 16.4871 1.49943 16.4871 1.76465V8.49965C16.4871 8.76486 16.3818 9.01922 16.1942 9.20676C16.0067 9.39429 15.7523 9.49965 15.4871 9.49965Z" fill="white"/>
<path d="M5.75813 10.9971H1.26813C1.00291 10.9971 0.748557 10.8917 0.561021 10.7042C0.373484 10.5166 0.268127 10.2623 0.268127 9.99707C0.268127 9.73185 0.373484 9.4775 0.561021 9.28996C0.748557 9.10243 1.00291 8.99707 1.26813 8.99707H5.75813C6.02334 8.99707 6.2777 9.10243 6.46523 9.28996C6.65277 9.4775 6.75813 9.73185 6.75813 9.99707C6.75813 10.2623 6.65277 10.5166 6.46523 10.7042C6.2777 10.8917 6.02334 10.9971 5.75813 10.9971Z" fill="white"/>
<path d="M11.7451 6.50684H7.25513C6.98991 6.50684 6.73556 6.40148 6.54802 6.21394C6.36048 6.02641 6.25513 5.77205 6.25513 5.50684C6.25513 5.24162 6.36048 4.98727 6.54802 4.79973C6.73556 4.61219 6.98991 4.50684 7.25513 4.50684H11.7451C12.0103 4.50684 12.2647 4.61219 12.4522 4.79973C12.6398 4.98727 12.7451 5.24162 12.7451 5.50684C12.7451 5.77205 12.6398 6.02641 12.4522 6.21394C12.2647 6.40148 12.0103 6.50684 11.7451 6.50684Z" fill="white"/>
<path d="M17.7321 12.4932H13.2421C12.9769 12.4932 12.7226 12.3878 12.535 12.2003C12.3475 12.0127 12.2421 11.7584 12.2421 11.4932C12.2421 11.2279 12.3475 10.9736 12.535 10.7861C12.7226 10.5985 12.9769 10.4932 13.2421 10.4932H17.7321C17.9973 10.4932 18.2517 10.5985 18.4392 10.7861C18.6268 10.9736 18.7321 11.2279 18.7321 11.4932C18.7321 11.7584 18.6268 12.0127 18.4392 12.2003C18.2517 12.3878 17.9973 12.4932 17.7321 12.4932Z" fill="white"/>
</svg>
