<svg width="20" height="20" viewBox="0 0 20 20" fill="none" xmlns="http://www.w3.org/2000/svg">
<path d="M18.4468 16.3216C17.9651 15.1989 17.2662 14.1792 16.3889 13.3191C15.5143 12.4566 14.4782 11.7689 13.3378 11.294C13.3276 11.2889 13.3174 11.2864 13.3072 11.2814C14.8978 10.1508 15.9319 8.30905 15.9319 6.23116C15.9319 2.78894 13.0978 0 9.6 0C6.10215 0 3.26813 2.78894 3.26813 6.23116C3.26813 8.30905 4.30216 10.1508 5.89279 11.2839C5.88258 11.2889 5.87237 11.2915 5.86215 11.2965C4.71833 11.7714 3.69195 12.4523 2.81111 13.3216C1.93463 14.1823 1.23581 15.2019 0.75325 16.3241C0.279182 17.4227 0.0235069 18.6006 6.38447e-05 19.794C-0.000617611 19.8208 0.004162 19.8475 0.0141212 19.8724C0.0240804 19.8974 0.0390176 19.9202 0.0580526 19.9394C0.0770876 19.9586 0.0998353 19.9738 0.124955 19.9842C0.150075 19.9946 0.17706 20 0.204318 20H1.73622C1.84856 20 1.93792 19.9121 1.94048 19.804C1.99154 17.8643 2.78302 16.0477 4.18216 14.6709C5.62981 13.2462 7.55235 12.4623 9.6 12.4623C11.6476 12.4623 13.5702 13.2462 15.0178 14.6709C16.417 16.0477 17.2085 17.8643 17.2595 19.804C17.2621 19.9146 17.3514 20 17.4638 20H18.9957C19.0229 20 19.0499 19.9946 19.075 19.9842C19.1002 19.9738 19.1229 19.9586 19.1419 19.9394C19.161 19.9202 19.1759 19.8974 19.1859 19.8724C19.1958 19.8475 19.2006 19.8208 19.1999 19.794C19.1744 18.593 18.9216 17.4246 18.4468 16.3216ZM9.6 10.5528C8.42809 10.5528 7.32512 10.103 6.49534 9.28643C5.66556 8.46985 5.20854 7.38442 5.20854 6.23116C5.20854 5.07789 5.66556 3.99246 6.49534 3.17588C7.32512 2.3593 8.42809 1.90955 9.6 1.90955C10.7719 1.90955 11.8749 2.3593 12.7047 3.17588C13.5344 3.99246 13.9915 5.07789 13.9915 6.23116C13.9915 7.38442 13.5344 8.46985 12.7047 9.28643C11.8749 10.103 10.7719 10.5528 9.6 10.5528Z" fill="white"/>
</svg>
