<svg width="14" height="15" viewBox="0 0 14 15" fill="none" xmlns="http://www.w3.org/2000/svg">
<path d="M12.7535 12.2412C12.4205 11.3992 11.9373 10.6344 11.3308 9.98932C10.7261 9.34242 10.0097 8.82664 9.22136 8.47048C9.2143 8.46671 9.20724 8.46482 9.20018 8.46106C10.2999 7.61307 11.0148 6.23178 11.0148 4.67337C11.0148 2.09171 9.05543 0 6.63713 0C4.21883 0 2.25948 2.09171 2.25948 4.67337C2.25948 6.23178 2.97438 7.61307 4.07409 8.46294C4.06703 8.46671 4.05997 8.46859 4.05291 8.47236C3.2621 8.82852 2.5525 9.3392 1.94351 9.99121C1.33754 10.6367 0.854401 11.4015 0.520773 12.2431C0.193018 13.0671 0.0162519 13.9505 4.41402e-05 14.8455C-0.000426996 14.8656 0.00287748 14.8856 0.00976294 14.9043C0.0166484 14.9231 0.0269755 14.9401 0.0401357 14.9545C0.0532959 14.9689 0.069023 14.9804 0.0863901 14.9882C0.103757 14.996 0.122413 15 0.141259 15H1.20037C1.27804 15 1.33982 14.934 1.34158 14.853C1.37689 13.3982 1.92409 12.0358 2.89141 11.0031C3.89227 9.93468 5.22146 9.34673 6.63713 9.34673C8.05281 9.34673 9.38199 9.93468 10.3829 11.0031C11.3502 12.0358 11.8974 13.3982 11.9327 14.853C11.9344 14.9359 11.9962 15 12.0739 15H13.133C13.1519 15 13.1705 14.996 13.1879 14.9882C13.2052 14.9804 13.221 14.9689 13.2341 14.9545C13.2473 14.9401 13.2576 14.9231 13.2645 14.9043C13.2714 14.8856 13.2747 14.8656 13.2742 14.8455C13.2566 13.9447 13.0818 13.0685 12.7535 12.2412ZM6.63713 7.91457C5.82691 7.91457 5.06436 7.57726 4.49067 6.96482C3.91699 6.35239 3.60102 5.53832 3.60102 4.67337C3.60102 3.80842 3.91699 2.99435 4.49067 2.38191C5.06436 1.76947 5.82691 1.43216 6.63713 1.43216C7.44735 1.43216 8.20991 1.76947 8.7836 2.38191C9.35728 2.99435 9.67325 3.80842 9.67325 4.67337C9.67325 5.53832 9.35728 6.35239 8.7836 6.96482C8.20991 7.57726 7.44735 7.91457 6.63713 7.91457Z" fill="#B6B6B6"/>
</svg>
