<svg width="26" height="27" viewBox="0 0 26 27" fill="none" xmlns="http://www.w3.org/2000/svg">
<path d="M0.75014 25.7369C0.748546 25.8041 0.760578 25.8708 0.785441 25.9332C0.810398 25.9957 0.847726 26.0525 0.895027 26.1002C0.942309 26.1479 0.998592 26.1856 1.06045 26.2112C1.12229 26.2369 1.18856 26.25 1.2554 26.25C1.25542 26.25 1.25544 26.25 1.25547 26.25H3.17028C3.44392 26.25 3.6687 26.0344 3.67551 25.7616C3.73762 23.4023 4.69984 21.1929 6.40306 19.5168C8.16545 17.7824 10.5055 16.8279 13 16.8279C15.4945 16.8279 17.8345 17.7824 19.5969 19.5168C21.3002 21.1929 22.2624 23.4023 22.3245 25.7616C22.3313 26.0397 22.5583 26.25 22.8297 26.25H24.7445C24.7446 26.25 24.7446 26.25 24.7446 26.25C24.8114 26.25 24.8777 26.2369 24.9395 26.2112C25.0014 26.1856 25.0577 26.1479 25.105 26.1002C25.1523 26.0525 25.1896 25.9957 25.2146 25.9332C25.2394 25.8709 25.2514 25.8042 25.2499 25.7371C25.2173 24.2039 24.8945 22.7118 24.2882 21.3034C23.6733 19.8701 22.781 18.5683 21.6614 17.4706C20.6378 16.4613 19.4412 15.6397 18.1279 15.0431C19.9797 13.5716 21.1648 11.3162 21.1648 8.78894C21.1648 4.34435 17.5066 0.75 13 0.75C8.49341 0.75 4.83516 4.34435 4.83516 8.78894C4.83516 11.3163 6.02037 13.5716 7.87214 15.0457C6.55665 15.6413 5.36935 16.4565 4.3385 17.4739C3.21997 18.5723 2.32796 19.8738 1.7119 21.3064C1.10666 22.7091 0.780155 24.2131 0.75014 25.7369ZM0.75014 25.7369C0.750147 25.7367 0.750153 25.7364 0.75016 25.7361L1.00008 25.7425L0.750128 25.7376C0.750132 25.7374 0.750136 25.7371 0.75014 25.7369ZM13 13.941C11.6002 13.941 10.2846 13.4042 9.29453 12.4299C8.30457 11.4556 7.76067 10.1628 7.76067 8.78894C7.76067 7.41504 8.30457 6.12225 9.29453 5.14804C10.2846 4.17369 11.6002 3.63693 13 3.63693C14.3998 3.63693 15.7154 4.17369 16.7055 5.14804C17.6954 6.12225 18.2393 7.41504 18.2393 8.78894C18.2393 10.1628 17.6954 11.4556 16.7055 12.4299C15.7154 13.4042 14.3998 13.941 13 13.941Z" fill="#B6B6B6" stroke="#B6B6B6" stroke-width="0.5"/>
</svg>
