<svg width="25" height="19" viewBox="0 0 25 19" fill="none" xmlns="http://www.w3.org/2000/svg">
<path d="M17.7084 7.4165H20.8334H17.7084ZM23.9584 7.4165H20.8334H23.9584ZM20.8334 7.4165V4.2915V7.4165ZM20.8334 7.4165V10.5415V7.4165ZM1.04175 17.8332V16.7915C1.04175 14.8576 1.80997 13.003 3.17743 11.6355C4.54488 10.2681 6.39954 9.49984 8.33341 9.49984V9.49984C10.2673 9.49984 12.1219 10.2681 13.4894 11.6355C14.8569 13.003 15.6251 14.8576 15.6251 16.7915V17.8332H1.04175ZM8.33341 9.49984C9.43848 9.49984 10.4983 9.06085 11.2797 8.27945C12.0611 7.49805 12.5001 6.43824 12.5001 5.33317C12.5001 4.2281 12.0611 3.16829 11.2797 2.38689C10.4983 1.60549 9.43848 1.1665 8.33341 1.1665C7.22835 1.1665 6.16854 1.60549 5.38714 2.38689C4.60573 3.16829 4.16675 4.2281 4.16675 5.33317C4.16675 6.43824 4.60573 7.49805 5.38714 8.27945C6.16854 9.06085 7.22835 9.49984 8.33341 9.49984V9.49984Z" stroke="white" stroke-width="2" stroke-linecap="round" stroke-linejoin="round"/>
</svg>
